<svg width="12" height="14" viewBox="0 0 12 14" fill="none" xmlns="http://www.w3.org/2000/svg">
<path d="M3.33317 1.00004C3.33317 0.631851 3.63165 0.333374 3.99984 0.333374H7.99984C8.36803 0.333374 8.6665 0.631851 8.6665 1.00004H9.99984C10.7362 1.00004 11.3332 1.59699 11.3332 2.33337V12.3334C11.3332 13.0698 10.7362 13.6667 9.99984 13.6667H1.99984C1.26346 13.6667 0.666504 13.0698 0.666504 12.3334V2.33337C0.666504 1.59699 1.26346 1.00004 1.99984 1.00004H3.33317ZM3.33317 2.33337H1.99984V12.3334H9.99984V2.33337H8.6665V3.00004C8.6665 3.36823 8.36803 3.66671 7.99984 3.66671H3.99984C3.63165 3.66671 3.33317 3.36823 3.33317 3.00004V2.33337ZM7.33317 1.66671H4.6665V2.33337H7.33317V1.66671ZM8.47124 6.1953C8.73159 6.45565 8.73159 6.87776 8.47124 7.13811L5.80457 9.80478C5.54422 10.0651 5.12211 10.0651 4.86177 9.80478L3.52843 8.47145C3.26808 8.2111 3.26808 7.78899 3.52843 7.52864C3.78878 7.26829 4.21089 7.26829 4.47124 7.52864L5.33317 8.39057L7.52843 6.1953C7.78878 5.93495 8.21089 5.93495 8.47124 6.1953Z" fill="white"/>
</svg>
