<svg width="11" height="14" viewBox="0 0 11 14" fill="none" xmlns="http://www.w3.org/2000/svg">
<path d="M3.33437 6.33175C3.70268 6.33175 4.00125 6.03335 4.00125 5.66525C4.00125 5.29715 3.70268 4.99875 3.33437 4.99875C2.96607 4.99875 2.6675 5.29715 2.6675 5.66525C2.6675 6.03335 2.96607 6.33175 3.33437 6.33175Z" fill="white"/>
<path d="M4.66813 5.66525C4.66813 5.29715 4.9667 4.99875 5.335 4.99875H7.33563C7.70393 4.99875 8.0025 5.29715 8.0025 5.66525C8.0025 6.03335 7.70393 6.33175 7.33563 6.33175H5.335C4.9667 6.33175 4.66813 6.03335 4.66813 5.66525Z" fill="white"/>
<path d="M5.335 6.99825C4.9667 6.99825 4.66813 7.29665 4.66813 7.66475C4.66813 8.03285 4.9667 8.33125 5.335 8.33125H7.33563C7.70393 8.33125 8.0025 8.03285 8.0025 7.66475C8.0025 7.29665 7.70393 6.99825 7.33563 6.99825H5.335Z" fill="white"/>
<path d="M5.335 8.99775C4.9667 8.99775 4.66813 9.29615 4.66813 9.66425C4.66813 10.0323 4.9667 10.3307 5.335 10.3307H7.33563C7.70393 10.3307 8.0025 10.0323 8.0025 9.66425C8.0025 9.29615 7.70393 8.99775 7.33563 8.99775H5.335Z" fill="white"/>
<path d="M4.00125 7.66475C4.00125 8.03285 3.70268 8.33125 3.33437 8.33125C2.96607 8.33125 2.6675 8.03285 2.6675 7.66475C2.6675 7.29665 2.96607 6.99825 3.33437 6.99825C3.70268 6.99825 4.00125 7.29665 4.00125 7.66475Z" fill="white"/>
<path d="M3.33437 10.3307C3.70268 10.3307 4.00125 10.0323 4.00125 9.66425C4.00125 9.29615 3.70268 8.99775 3.33437 8.99775C2.96607 8.99775 2.6675 9.29615 2.6675 9.66425C2.6675 10.0323 2.96607 10.3307 3.33437 10.3307Z" fill="white"/>
<path d="M3.33437 0C2.96607 0 2.6675 0.298402 2.6675 0.6665H1.33375C0.59714 0.6665 0 1.2633 0 1.9995V11.997C0 12.7332 0.597141 13.33 1.33375 13.33H9.33625C10.0729 13.33 10.67 12.7332 10.67 11.997V1.9995C10.67 1.2633 10.0729 0.6665 9.33625 0.6665H8.0025C8.0025 0.298402 7.70393 0 7.33563 0H3.33437ZM8.0025 1.9995H9.33625V11.997H1.33375V1.9995H2.6675V2.666C2.6675 3.0341 2.96607 3.3325 3.33437 3.3325H7.33563C7.70393 3.3325 8.0025 3.0341 8.0025 2.666V1.9995ZM4.00125 1.9995V1.333H6.66875V1.9995H4.00125Z" fill="white"/>
</svg>
