<svg width="21" height="20" viewBox="0 0 21 20" fill="none" xmlns="http://www.w3.org/2000/svg">
<path d="M10.1426 0C4.62258 0 0.142578 4.48 0.142578 10C0.142578 15.52 4.62258 20 10.1426 20C15.6626 20 20.1426 15.52 20.1426 10C20.1426 4.48 15.6626 0 10.1426 0ZM7.43258 14.29L3.84258 10.7C3.45258 10.31 3.45258 9.68 3.84258 9.29C4.23258 8.9 4.86258 8.9 5.25258 9.29L8.14258 12.17L15.0226 5.29C15.4126 4.9 16.0426 4.9 16.4326 5.29C16.8226 5.68 16.8226 6.31 16.4326 6.7L8.84258 14.29C8.46258 14.68 7.82258 14.68 7.43258 14.29Z" fill="#3672BD"/>
</svg>
