<svg width="13" height="13" viewBox="0 0 13 13" fill="none" xmlns="http://www.w3.org/2000/svg">
<path d="M9.80474 0.528636C9.54439 0.268287 9.12228 0.268287 8.86193 0.528636L7.33333 2.05723L6.47141 1.1953C6.21106 0.934953 5.78895 0.934953 5.5286 1.1953L1.5286 5.1953C1.26825 5.45565 1.26825 5.87776 1.5286 6.13811C1.78895 6.39846 2.21106 6.39846 2.4714 6.13811L6 2.60952L6.39053 3.00004L4.86193 4.52864L0.195262 9.1953C0.0702379 9.32033 0 9.4899 0 9.66671V12.3334C0 12.7016 0.298477 13 0.666667 13H3.33333C3.51014 13 3.67971 12.9298 3.80474 12.8048L8.47141 8.13811L12.4714 4.13811C12.7318 3.87776 12.7318 3.45565 12.4714 3.1953L9.80474 0.528636ZM7.80474 3.47144L9.33333 1.94285L11.0572 3.66671L8 6.7239L6.27614 5.00004L7.80474 3.47144ZM1.33333 9.94285L5.33333 5.94285L7.05719 7.66671L3.05719 11.6667H1.33333V9.94285Z" fill="white"/>
</svg>
