<svg width="14" height="14" viewBox="0 0 14 14" fill="none" xmlns="http://www.w3.org/2000/svg">
<path d="M7.00018 0.666626C7.2527 0.666626 7.48354 0.809294 7.59647 1.03515L9.31574 4.47369L13.0961 5.02357C13.3472 5.06009 13.5558 5.23598 13.6342 5.47729C13.7126 5.7186 13.6473 5.9835 13.4656 6.16063L10.7142 8.84326L11.3331 12.6256C11.374 12.8756 11.2697 13.1272 11.0639 13.2749C10.8582 13.4226 10.5865 13.4409 10.3627 13.3222L7.00018 11.538L3.63766 13.3222C3.41391 13.4409 3.1422 13.4226 2.93643 13.2749C2.73065 13.1272 2.62636 12.8756 2.66727 12.6256L3.2862 8.84326L0.534782 6.16063C0.353112 5.9835 0.287738 5.7186 0.366142 5.47729C0.444547 5.23598 0.653135 5.06009 0.904222 5.02357L4.68463 4.47369L6.4039 1.03515C6.51683 0.809294 6.74767 0.666626 7.00018 0.666626ZM7.00018 2.824L5.72147 5.38144C5.6239 5.57657 5.43703 5.71161 5.22114 5.74302L2.43244 6.14865L4.46558 8.13096C4.62137 8.28286 4.69324 8.50122 4.6581 8.71595L4.20019 11.5143L6.68771 10.1944C6.88312 10.0907 7.11724 10.0907 7.31266 10.1944L9.80018 11.5143L9.34227 8.71595C9.30713 8.50122 9.37899 8.28286 9.53478 8.13096L11.5679 6.14865L8.77922 5.74302C8.56333 5.71161 8.37646 5.57657 8.2789 5.38144L7.00018 2.824Z" fill="white"/>
</svg>
