<svg width="12" height="14" viewBox="0 0 12 14" fill="none" xmlns="http://www.w3.org/2000/svg">
<path d="M5.52843 0.528636C5.78878 0.268287 6.21089 0.268287 6.47124 0.528636L9.13791 3.1953C9.39826 3.45565 9.39826 3.87776 9.13791 4.13811C8.87756 4.39846 8.45545 4.39846 8.1951 4.13811L6.6665 2.60952V9.66671C6.6665 10.0349 6.36803 10.3334 5.99984 10.3334C5.63165 10.3334 5.33317 10.0349 5.33317 9.66671V2.60952L3.80457 4.13811C3.54423 4.39846 3.12212 4.39846 2.86177 4.13811C2.60142 3.87776 2.60142 3.45565 2.86177 3.1953L5.52843 0.528636ZM1.33317 10.3334C1.70136 10.3334 1.99984 10.6319 1.99984 11V12.3334H9.99984V11C9.99984 10.6319 10.2983 10.3334 10.6665 10.3334C11.0347 10.3334 11.3332 10.6319 11.3332 11V12.3334C11.3332 13.0698 10.7362 13.6667 9.99984 13.6667H1.99984C1.26346 13.6667 0.666504 13.0698 0.666504 12.3334V11C0.666504 10.6319 0.964981 10.3334 1.33317 10.3334Z" fill="white"/>
</svg>
