<svg width="222" height="35" viewBox="0 0 222 35" fill="none" xmlns="http://www.w3.org/2000/svg">
<g opacity="0.9">
<path fill-rule="evenodd" clip-rule="evenodd" d="M16.7302 0.5H0V17.2302H16.7302V0.5ZM8.1292 4.71345V13.9921H8.60096V4.71345H11.873V4.27778H4.85714V4.71345H8.1292Z" fill="white"/>
<path fill-rule="evenodd" clip-rule="evenodd" d="M16.7302 17.7698H0V34.5H16.7302V17.7698ZM5.66223 29.8213C6.2029 30.4219 7.0139 30.7222 8.09524 30.7222C9.17657 30.7222 9.98561 30.4219 10.5223 29.8213C11.063 29.2168 11.3333 28.3139 11.3333 27.1126V21.0079H10.8775V27.0664C10.8775 28.1252 10.6427 28.9261 10.1731 29.469C9.70343 30.008 9.01082 30.2775 8.09524 30.2775C7.17965 30.2775 6.48704 30.008 6.01741 29.469C5.54778 28.9261 5.31296 28.1252 5.31296 27.0664V21.0079H4.85714V27.1126C4.85714 28.3139 5.1255 29.2168 5.66223 29.8213Z" fill="white"/>
<path fill-rule="evenodd" clip-rule="evenodd" d="M17.2698 0.5H34V17.2302H17.2698V0.5ZM23.9381 13.6176C24.5154 13.8672 25.1415 13.9921 25.8163 13.9921C26.3234 13.9921 26.8364 13.9126 27.3552 13.7537C27.874 13.5949 28.3499 13.3509 28.7828 13.0218C29.2158 12.6927 29.563 12.2747 29.8243 11.7678C30.0896 11.2571 30.2222 10.6499 30.2222 9.94634V9.36189H25.7519V9.74774H29.7541V10.1563C29.7541 10.6859 29.641 11.1625 29.4148 11.5862C29.1924 12.0099 28.8901 12.373 28.5078 12.6756C28.1256 12.9745 27.6984 13.2033 27.2264 13.3622C26.7583 13.5173 26.2805 13.5949 25.7929 13.5949C25.1961 13.5949 24.6383 13.4814 24.1195 13.2544C23.6007 13.0237 23.1462 12.704 22.7562 12.2955C22.37 11.8869 22.0677 11.4122 21.8492 10.8712C21.6347 10.3303 21.5274 9.74963 21.5274 9.12925C21.5274 8.55426 21.623 8.00197 21.8141 7.47237C22.0053 6.93899 22.2861 6.46236 22.6567 6.04246C23.0312 5.61879 23.4836 5.28401 24.0142 5.03812C24.5447 4.79224 25.1473 4.6693 25.8222 4.6693C26.5321 4.6693 27.1796 4.80737 27.7647 5.08352C28.3499 5.35588 28.8316 5.71714 29.21 6.1673L29.485 5.84387C29.2236 5.53746 28.9116 5.26699 28.5488 5.03245C28.186 4.79792 27.7784 4.61445 27.3259 4.48205C26.8734 4.34587 26.38 4.27778 25.8456 4.27778C25.0771 4.27778 24.3945 4.41396 23.7977 4.68632C23.2047 4.95869 22.7035 5.32751 22.2939 5.7928C21.8843 6.2543 21.5742 6.77444 21.3636 7.35321C21.1529 7.93198 21.0476 8.52778 21.0476 9.14059C21.0476 9.81015 21.1685 10.4381 21.4104 11.0244C21.6522 11.6108 21.9897 12.1271 22.4226 12.5735C22.8556 13.0161 23.3608 13.3641 23.9381 13.6176Z" fill="white"/>
<path fill-rule="evenodd" clip-rule="evenodd" d="M34 17.7698H17.2698V34.5H34V17.7698ZM24.5845 30.3591C25.1936 30.6012 25.857 30.7222 26.5748 30.7222C27.1839 30.7222 27.7504 30.6333 28.2742 30.4555C28.8018 30.2777 29.2713 30.0337 29.6825 29.7236L29.4381 29.3661C29.0618 29.6649 28.6311 29.8938 28.1461 30.0527C27.665 30.2078 27.1529 30.2853 26.6097 30.2853C25.9424 30.2853 25.3313 30.1718 24.7765 29.9449C24.2256 29.7179 23.7484 29.4039 23.3449 29.0029C22.9452 28.602 22.6348 28.1348 22.4137 27.6014C22.1925 27.0642 22.082 26.4855 22.082 25.8651C22.082 25.2447 22.1925 24.6678 22.4137 24.1344C22.6348 23.5973 22.9452 23.1282 23.3449 22.7272C23.7484 22.3263 24.2256 22.0123 24.7765 21.7853C25.3313 21.5583 25.9424 21.4449 26.6097 21.4449C27.1529 21.4449 27.665 21.5243 28.1461 21.6832C28.6311 21.8383 29.0618 22.0652 29.4381 22.3641L29.6825 22.0066C29.2674 21.6926 28.7979 21.4486 28.2742 21.2746C27.7504 21.0968 27.1839 21.0079 26.5748 21.0079C25.857 21.0079 25.1936 21.1309 24.5845 21.3768C23.9792 21.6189 23.4516 21.9612 23.0015 22.4038C22.5514 22.8426 22.2022 23.3571 21.9539 23.9472C21.7095 24.5335 21.5873 25.1728 21.5873 25.8651C21.5873 26.5573 21.7095 27.1985 21.9539 27.7886C22.2022 28.375 22.5514 28.8894 23.0015 29.332C23.4516 29.7708 23.9792 30.1132 24.5845 30.3591Z" fill="white"/>
<path d="M221.27 26.9444H219.111V8.05556H221.27V26.9444Z" fill="white"/>
<path d="M70.1942 19.6557H65.4401V17.6169H72.2066V24.4724C71.452 25.237 70.4542 25.8401 69.2132 26.2818C67.9555 26.7236 66.7565 26.9444 65.6162 26.9444C62.8828 26.9444 60.7111 26.1119 59.1012 24.4469C57.4914 22.7819 56.6864 20.5562 56.6864 17.7698C56.6864 15.1704 57.483 12.9872 59.0761 11.2202C60.6524 9.47022 62.7402 8.59524 65.3395 8.59524C67.5866 8.59524 69.4312 9.1729 70.8734 10.3282L69.9427 12.0612C68.903 11.1098 67.4524 10.634 65.591 10.634C63.629 10.634 62.0275 11.2882 60.7866 12.5964C59.5624 13.8876 58.9503 15.6121 58.9503 17.7698C58.9503 19.9446 59.5624 21.6775 60.7866 22.9688C62.0107 24.26 63.6374 24.9056 65.6665 24.9056C66.4714 24.9056 67.3183 24.7612 68.2071 24.4724C69.0455 24.1666 69.7079 23.7843 70.1942 23.3256V19.6557Z" fill="white"/>
<path d="M88.0679 8.85009H90.206V19.248C90.206 21.8135 89.5604 23.7333 88.2691 25.0076C86.9779 26.2818 85.3512 26.919 83.3892 26.919C81.1756 26.919 79.4064 26.2479 78.0817 24.9056C76.7569 23.5634 76.0945 21.6181 76.0945 19.0696V8.85009H78.2326V18.6618C78.2326 20.6157 78.677 22.1448 79.5658 23.2491C80.4713 24.3365 81.7458 24.8802 83.3892 24.8802C84.8817 24.8802 86.0304 24.362 86.8353 23.3256C87.657 22.2892 88.0679 20.7856 88.0679 18.8147V8.85009Z" fill="white"/>
<path d="M108.342 24.9566L107.486 23.3256C106.195 24.379 104.694 24.9056 102.984 24.9056C100.955 24.9056 99.2944 24.2515 98.0032 22.9433C96.7455 21.6181 96.1166 19.8936 96.1166 17.7698C96.1166 15.6461 96.7287 13.9301 97.9529 12.6219C99.1771 11.2966 100.745 10.634 102.657 10.634C104.384 10.634 105.835 11.0758 107.008 11.9593L107.989 10.3282C106.648 9.1729 104.862 8.59524 102.632 8.59524C99.9317 8.59524 97.7936 9.47022 96.2173 11.2202C94.6409 12.9362 93.8528 15.1194 93.8528 17.7698C93.8528 20.5222 94.6745 22.7479 96.3179 24.4469C97.9948 26.1119 100.15 26.9444 102.783 26.9444C103.889 26.9444 104.946 26.7661 105.952 26.4093C106.958 26.0525 107.755 25.5683 108.342 24.9566Z" fill="white"/>
<path d="M119.552 26.6896H121.69V19.2479H128.734V17.2091H121.69V10.8889H129.488V8.85006H119.552V26.6896Z" fill="white"/>
<path d="M142.299 26.9444H140.317V14.2183H142.299V15.7737C142.712 15.2458 143.248 14.8216 143.909 14.5011C144.586 14.1617 145.263 13.9921 145.94 13.9921C149.028 13.9921 150.571 15.8586 150.571 19.5916V26.9444H148.59V20.0158C148.59 17.414 147.541 16.1131 145.444 16.1131C144.19 16.1131 143.141 16.6598 142.299 17.7533V26.9444Z" fill="white"/>
<path fill-rule="evenodd" clip-rule="evenodd" d="M155.786 15.1292L156.324 16.9043C157.4 16.2941 158.46 15.989 159.502 15.989C160.527 15.989 161.219 16.2941 161.578 16.9043C161.936 17.5144 162.116 18.5222 162.116 19.9274C161.415 19.3912 160.459 19.1231 159.246 19.1231C157.947 19.1231 156.896 19.4837 156.093 20.2048C155.29 20.9074 154.889 21.8689 154.889 23.0892C154.889 24.2726 155.214 25.2156 155.863 25.9182C156.512 26.6024 157.366 26.9444 158.425 26.9444C159.98 26.9444 161.21 26.3435 162.116 25.1417V26.7503H164.063V19.0954C164.063 17.3573 163.713 16.0722 163.013 15.2402C162.312 14.4081 161.185 13.9921 159.63 13.9921C158.212 13.9921 156.931 14.3711 155.786 15.1292ZM162.116 23.3389C161.279 24.4113 160.288 24.9475 159.143 24.9475C158.494 24.9475 157.981 24.7718 157.605 24.4205C157.247 24.0692 157.067 23.5885 157.067 22.9783C157.067 22.3311 157.298 21.8319 157.759 21.4806C158.238 21.1108 158.827 20.9259 159.527 20.9259C160.535 20.9259 161.398 21.2032 162.116 21.7579V23.3389Z" fill="white"/>
<path d="M171.981 26.9444H170V14.2183H171.981V15.7737C172.394 15.2458 172.931 14.8216 173.591 14.5011C174.268 14.1617 174.945 13.9921 175.622 13.9921C178.71 13.9921 180.254 15.8586 180.254 19.5916V26.9444H178.273V20.0158C178.273 17.414 177.224 16.1131 175.127 16.1131C173.872 16.1131 172.824 16.6598 171.981 17.7533V26.9444Z" fill="white"/>
<path d="M195.365 24.8776L194.374 23.2792C193.488 24.3448 192.367 24.8776 191.011 24.8776C189.812 24.8776 188.804 24.4734 187.987 23.665C187.187 22.875 186.788 21.8094 186.788 20.4683C186.788 19.2006 187.179 18.1534 187.961 17.3266C188.76 16.4815 189.708 16.0589 190.803 16.0589C192.141 16.0589 193.262 16.4907 194.166 17.3542L195.13 15.618C194.105 14.534 192.567 13.9921 190.516 13.9921C188.812 13.9921 187.396 14.6167 186.266 15.866C185.136 17.1153 184.571 18.6494 184.571 20.4683C184.571 22.4341 185.145 24.0049 186.292 25.1807C187.457 26.3565 188.978 26.9444 190.855 26.9444C192.854 26.9444 194.357 26.2555 195.365 24.8776Z" fill="white"/>
<path d="M200.222 11.2937H198.063V9.13492H200.222V11.2937Z" fill="white"/>
<path d="M200.222 26.9444H198.063V13.4524H200.222V26.9444Z" fill="white"/>
<path d="M133.841 11.2937H136V9.13492H133.841V11.2937Z" fill="white"/>
<path d="M133.841 26.9444H136V13.4524H133.841V26.9444Z" fill="white"/>
<path fill-rule="evenodd" clip-rule="evenodd" d="M204.897 15.1292L205.435 16.9043C206.511 16.2941 207.571 15.989 208.613 15.989C209.638 15.989 210.33 16.2941 210.689 16.9043C211.048 17.5144 211.227 18.5222 211.227 19.9274C210.526 19.3912 209.57 19.1231 208.357 19.1231C207.058 19.1231 206.007 19.4837 205.204 20.2048C204.401 20.9074 204 21.8689 204 23.0892C204 24.2726 204.325 25.2156 204.974 25.9182C205.623 26.6024 206.477 26.9444 207.537 26.9444C209.091 26.9444 210.321 26.3435 211.227 25.1417V26.7503H213.175V19.0954C213.175 17.3573 212.824 16.0722 212.124 15.2402C211.423 14.4081 210.296 13.9921 208.741 13.9921C207.323 13.9921 206.042 14.3711 204.897 15.1292ZM211.227 23.3389C210.39 24.4113 209.399 24.9475 208.254 24.9475C207.605 24.9475 207.092 24.7718 206.717 24.4205C206.358 24.0692 206.178 23.5885 206.178 22.9783C206.178 22.3311 206.409 21.8319 206.87 21.4806C207.349 21.1108 207.938 20.9259 208.639 20.9259C209.647 20.9259 210.509 21.2032 211.227 21.7579V23.3389Z" fill="white"/>
<path d="M46.639 10.8889H40.4762V8.85006H54.9399V10.8889H48.7771V26.6896H46.639V10.8889Z" fill="white"/>
</g>
</svg>
