<svg width="63" height="63" viewBox="0 0 63 63" fill="none" xmlns="http://www.w3.org/2000/svg">
<g opacity="0.9">
<path fill-rule="evenodd" clip-rule="evenodd" d="M31 0H0V31H31V0ZM15.0629 7.80727V25H15.9371V7.80727H22V7H9V7.80727H15.0629Z" fill="#231F20"/>
<path fill-rule="evenodd" clip-rule="evenodd" d="M31 32H0V63H31V32ZM10.4918 54.3306C11.4936 55.4435 12.9963 56 15 56C17.0037 56 18.5027 55.4435 19.4973 54.3306C20.4991 53.2105 21 51.5375 21 49.3115V38H20.1554V49.2259C20.1554 51.1879 19.7203 52.6718 18.8501 53.6778C17.9799 54.6766 16.6965 55.176 15 55.176C13.3035 55.176 12.0201 54.6766 11.1499 53.6778C10.2797 52.6718 9.84461 51.1879 9.84461 49.2259V38H9V49.3115C9 51.5375 9.49726 53.2105 10.4918 54.3306Z" fill="#231F20"/>
<path fill-rule="evenodd" clip-rule="evenodd" d="M32 0H63V31H32V0ZM44.3559 24.3061C45.4256 24.7687 46.5857 25 47.8361 25C48.7757 25 49.7262 24.8528 50.6875 24.5584C51.6488 24.264 52.5306 23.8119 53.3329 23.2021C54.1352 22.5923 54.7785 21.8178 55.2628 20.8785C55.7542 19.9322 56 18.8072 56 17.5035V16.4206H47.7168V17.1355H55.1327V17.8925C55.1327 18.8738 54.923 19.757 54.5038 20.5421C54.0918 21.3271 53.5317 22 52.8233 22.5607C52.115 23.1145 51.3236 23.5386 50.449 23.8329C49.5816 24.1203 48.6962 24.264 47.7927 24.264C46.6869 24.264 45.6533 24.0537 44.692 23.6332C43.7307 23.2056 42.8886 22.6133 42.1658 21.8563C41.4503 21.0993 40.8901 20.2196 40.4853 19.2173C40.0878 18.215 39.889 17.139 39.889 15.9895C39.889 14.9241 40.0661 13.9007 40.4203 12.9194C40.7744 11.9311 41.2949 11.0479 41.9815 10.2699C42.6754 9.48481 43.5138 8.86449 44.4968 8.40888C45.4798 7.95327 46.5965 7.72547 47.8469 7.72547C49.1624 7.72547 50.3622 7.98131 51.4464 8.49299C52.5306 8.99766 53.4233 9.66706 54.1244 10.5012L54.6339 9.90187C54.1497 9.33411 53.5714 8.83294 52.8992 8.39837C52.227 7.96378 51.4717 7.62383 50.6333 7.3785C49.7949 7.12617 48.8805 7 47.8903 7C46.4664 7 45.2015 7.25234 44.0957 7.75701C42.997 8.26168 42.0682 8.94509 41.3093 9.80724C40.5504 10.6624 39.9758 11.6262 39.5855 12.6986C39.1952 13.771 39 14.875 39 16.0105C39 17.2512 39.2241 18.4147 39.6722 19.5012C40.1203 20.5876 40.7455 21.5444 41.5478 22.3715C42.3501 23.1916 43.2861 23.8364 44.3559 24.3061Z" fill="#231F20"/>
<path fill-rule="evenodd" clip-rule="evenodd" d="M63 32H32V63H63V32ZM45.5536 55.3271C46.6822 55.7757 47.9116 56 49.2415 56C50.3702 56 51.4198 55.8353 52.3904 55.5058C53.3681 55.1764 54.238 54.7243 55 54.1495L54.5471 53.4871C53.8497 54.0409 53.0518 54.465 52.1531 54.7593C51.2617 55.0467 50.3127 55.1904 49.3063 55.1904C48.0697 55.1904 46.9374 54.9801 45.9094 54.5596C44.8886 54.139 44.0043 53.5572 43.2567 52.8143C42.5162 52.0713 41.941 51.2056 41.5313 50.2173C41.1215 49.222 40.9166 48.1495 40.9166 47C40.9166 45.8505 41.1215 44.7815 41.5313 43.7932C41.941 42.7979 42.5162 41.9287 43.2567 41.1857C44.0043 40.4428 44.8886 39.861 45.9094 39.4404C46.9374 39.0199 48.0697 38.8096 49.3063 38.8096C50.3127 38.8096 51.2617 38.9568 52.1531 39.2512C53.0518 39.5386 53.8497 39.9591 54.5471 40.5129L55 39.8505C54.2308 39.2687 53.3609 38.8166 52.3904 38.4942C51.4198 38.1647 50.3702 38 49.2415 38C47.9116 38 46.6822 38.2278 45.5536 38.6834C44.4321 39.132 43.4543 39.7664 42.6204 40.5864C41.7865 41.3995 41.1395 42.3528 40.6794 43.4463C40.2265 44.5327 40 45.7173 40 47C40 48.2827 40.2265 49.4708 40.6794 50.5643C41.1395 51.6507 41.7865 52.604 42.6204 53.4241C43.4543 54.2371 44.4321 54.8715 45.5536 55.3271Z" fill="#231F20"/>
</g>
</svg>
