<svg width="410" height="63" viewBox="0 0 410 63" fill="none" xmlns="http://www.w3.org/2000/svg">
<g opacity="0.9">
<path fill-rule="evenodd" clip-rule="evenodd" d="M31 0H0V31H31V0ZM15.0629 7.80727V25H15.9371V7.80727H22V7H9V7.80727H15.0629Z" fill="#231F20"/>
<path fill-rule="evenodd" clip-rule="evenodd" d="M31 32H0V63H31V32ZM10.4918 54.3306C11.4936 55.4435 12.9963 56 15 56C17.0037 56 18.5027 55.4435 19.4973 54.3306C20.4991 53.2105 21 51.5375 21 49.3115V38H20.1554V49.2259C20.1554 51.1879 19.7203 52.6718 18.8501 53.6778C17.9799 54.6766 16.6965 55.176 15 55.176C13.3035 55.176 12.0201 54.6766 11.1499 53.6778C10.2797 52.6718 9.84461 51.1879 9.84461 49.2259V38H9V49.3115C9 51.5375 9.49726 53.2105 10.4918 54.3306Z" fill="#231F20"/>
<path fill-rule="evenodd" clip-rule="evenodd" d="M32 0H63V31H32V0ZM44.3559 24.3061C45.4256 24.7687 46.5857 25 47.8361 25C48.7757 25 49.7262 24.8528 50.6875 24.5584C51.6488 24.264 52.5306 23.8119 53.3329 23.2021C54.1352 22.5923 54.7785 21.8178 55.2628 20.8785C55.7542 19.9322 56 18.8072 56 17.5035V16.4206H47.7168V17.1355H55.1327V17.8925C55.1327 18.8738 54.923 19.757 54.5038 20.5421C54.0918 21.3271 53.5317 22 52.8233 22.5607C52.115 23.1145 51.3236 23.5386 50.449 23.8329C49.5816 24.1203 48.6962 24.264 47.7927 24.264C46.6869 24.264 45.6533 24.0537 44.692 23.6332C43.7307 23.2056 42.8886 22.6133 42.1658 21.8563C41.4503 21.0993 40.8901 20.2196 40.4853 19.2173C40.0878 18.215 39.889 17.139 39.889 15.9895C39.889 14.9241 40.0661 13.9007 40.4203 12.9194C40.7744 11.9311 41.2949 11.0479 41.9815 10.2699C42.6754 9.48481 43.5138 8.86449 44.4968 8.40888C45.4798 7.95327 46.5965 7.72547 47.8469 7.72547C49.1624 7.72547 50.3622 7.98131 51.4464 8.49299C52.5306 8.99766 53.4233 9.66706 54.1244 10.5012L54.6339 9.90187C54.1497 9.33411 53.5714 8.83294 52.8992 8.39837C52.227 7.96378 51.4717 7.62383 50.6333 7.3785C49.7949 7.12617 48.8805 7 47.8903 7C46.4664 7 45.2015 7.25234 44.0957 7.75701C42.997 8.26168 42.0682 8.94509 41.3093 9.80724C40.5504 10.6624 39.9758 11.6262 39.5855 12.6986C39.1952 13.771 39 14.875 39 16.0105C39 17.2512 39.2241 18.4147 39.6722 19.5012C40.1203 20.5876 40.7455 21.5444 41.5478 22.3715C42.3501 23.1916 43.2861 23.8364 44.3559 24.3061Z" fill="#231F20"/>
<path fill-rule="evenodd" clip-rule="evenodd" d="M63 32H32V63H63V32ZM45.5536 55.3271C46.6822 55.7757 47.9116 56 49.2415 56C50.3702 56 51.4198 55.8353 52.3904 55.5058C53.3681 55.1764 54.238 54.7243 55 54.1495L54.5471 53.4871C53.8497 54.0409 53.0518 54.465 52.1531 54.7593C51.2617 55.0467 50.3127 55.1904 49.3063 55.1904C48.0697 55.1904 46.9374 54.9801 45.9094 54.5596C44.8886 54.139 44.0043 53.5572 43.2567 52.8143C42.5162 52.0713 41.941 51.2056 41.5313 50.2173C41.1215 49.222 40.9166 48.1495 40.9166 47C40.9166 45.8505 41.1215 44.7815 41.5313 43.7932C41.941 42.7979 42.5162 41.9287 43.2567 41.1857C44.0043 40.4428 44.8886 39.861 45.9094 39.4404C46.9374 39.0199 48.0697 38.8096 49.3063 38.8096C50.3127 38.8096 51.2617 38.9568 52.1531 39.2512C53.0518 39.5386 53.8497 39.9591 54.5471 40.5129L55 39.8505C54.2308 39.2687 53.3609 38.8166 52.3904 38.4942C51.4198 38.1647 50.3702 38 49.2415 38C47.9116 38 46.6822 38.2278 45.5536 38.6834C44.4321 39.132 43.4543 39.7664 42.6204 40.5864C41.7865 41.3995 41.1395 42.3528 40.6794 43.4463C40.2265 44.5327 40 45.7173 40 47C40 48.2827 40.2265 49.4708 40.6794 50.5643C41.1395 51.6507 41.7865 52.604 42.6204 53.4241C43.4543 54.2371 44.4321 54.8715 45.5536 55.3271Z" fill="#231F20"/>
<path d="M410 49H406V14H410V49Z" fill="#231F20"/>
<path d="M130.066 35.4944H121.257V31.7167H133.795V44.4194C132.396 45.8361 130.547 46.9537 128.248 47.7722C125.918 48.5907 123.696 49 121.583 49C116.518 49 112.494 47.4574 109.511 44.3722C106.528 41.287 105.037 37.163 105.037 32C105.037 27.1833 106.513 23.138 109.465 19.8639C112.385 16.6213 116.254 15 121.07 15C125.234 15 128.652 16.0704 131.324 18.2111L129.6 21.4222C127.673 19.6593 124.985 18.7778 121.536 18.7778C117.901 18.7778 114.933 19.9898 112.634 22.4139C110.366 24.8065 109.231 28.0019 109.231 32C109.231 36.0296 110.366 39.2407 112.634 41.6333C114.902 44.0259 117.916 45.2222 121.676 45.2222C123.168 45.2222 124.737 44.9546 126.384 44.4194C127.937 43.8528 129.165 43.1444 130.066 42.2944V35.4944Z" fill="#231F20"/>
<path d="M163.185 15.4722H167.146V34.7389C167.146 39.4926 165.95 43.05 163.557 45.4111C161.165 47.7722 158.151 48.9528 154.515 48.9528C150.414 48.9528 147.135 47.7093 144.681 45.2222C142.226 42.7352 140.999 39.1306 140.999 34.4083V15.4722H144.96V33.6528C144.96 37.2731 145.784 40.1065 147.431 42.1528C149.109 44.1676 151.47 45.175 154.515 45.175C157.281 45.175 159.409 44.2148 160.901 42.2944C162.423 40.3741 163.185 37.588 163.185 33.9361V15.4722Z" fill="#231F20"/>
<path d="M200.751 45.3167L199.166 42.2944C196.773 44.2463 193.992 45.2222 190.823 45.2222C187.063 45.2222 183.987 44.0102 181.594 41.5861C179.264 39.1306 178.098 35.9352 178.098 32C178.098 28.0648 179.233 24.8852 181.501 22.4611C183.769 20.0056 186.675 18.7778 190.217 18.7778C193.417 18.7778 196.105 19.5963 198.28 21.2333L200.098 18.2111C197.612 16.0704 194.303 15 190.17 15C185.168 15 181.206 16.6213 178.285 19.8639C175.364 23.0435 173.904 27.0889 173.904 32C173.904 37.1 175.426 41.2241 178.471 44.3722C181.579 47.4574 185.572 49 190.45 49C192.501 49 194.458 48.6694 196.323 48.0083C198.187 47.3472 199.663 46.45 200.751 45.3167Z" fill="#231F20"/>
<path d="M221.523 48.5277H225.485V34.7388H238.536V30.9611H225.485V19.2499H239.934V15.4722H221.523V48.5277Z" fill="#231F20"/>
<path d="M263.672 49H260V25.4192H263.672V28.3013C264.436 27.3231 265.431 26.5371 266.655 25.9432C267.909 25.3144 269.163 25 270.418 25C276.139 25 279 28.4585 279 35.3755V49H275.328V36.1616C275.328 31.3406 273.386 28.9301 269.5 28.9301C267.175 28.9301 265.232 29.9432 263.672 31.9694V49Z" fill="#231F20"/>
<path fill-rule="evenodd" clip-rule="evenodd" d="M288.662 27.1071L289.659 30.3961C291.654 29.2655 293.616 28.7002 295.547 28.7002C297.447 28.7002 298.729 29.2655 299.394 30.3961C300.059 31.5268 300.391 33.394 300.391 35.9979C299.093 35.0043 297.32 34.5075 295.073 34.5075C292.667 34.5075 290.72 35.1756 289.232 36.5118C287.744 37.8137 287 39.5953 287 41.8565C287 44.0493 287.602 45.7966 288.804 47.0985C290.007 48.3662 291.59 49 293.553 49C296.434 49 298.713 47.8865 300.391 45.6595V48.6403H304V34.4561C304 31.2355 303.351 28.8544 302.053 27.3126C300.755 25.7709 298.666 25 295.785 25C293.157 25 290.783 25.7024 288.662 27.1071ZM300.391 42.3191C298.84 44.3062 297.004 45.2998 294.883 45.2998C293.68 45.2998 292.73 44.9743 292.034 44.3233C291.369 43.6724 291.036 42.7816 291.036 41.651C291.036 40.4518 291.464 39.5268 292.318 38.8758C293.205 38.1906 294.297 37.848 295.595 37.848C297.463 37.848 299.061 38.3619 300.391 39.3897V42.3191Z" fill="#231F20"/>
<path d="M318.672 49H315V25.4192H318.672V28.3013C319.436 27.3231 320.431 26.5371 321.655 25.9432C322.909 25.3144 324.163 25 325.418 25C331.139 25 334 28.4585 334 35.3755V49H330.328V36.1616C330.328 31.3406 328.386 28.9301 324.5 28.9301C322.175 28.9301 320.232 29.9432 318.672 31.9694V49Z" fill="#231F20"/>
<path d="M362 45.1702L360.164 42.2085C358.522 44.183 356.444 45.1702 353.932 45.1702C351.71 45.1702 349.842 44.4213 348.328 42.9234C346.847 41.4596 346.106 39.4851 346.106 37C346.106 34.6511 346.831 32.7106 348.28 31.1787C349.762 29.6128 351.517 28.8298 353.546 28.8298C356.026 28.8298 358.103 29.6298 359.778 31.2298L361.565 28.0128C359.665 26.0043 356.815 25 353.014 25C349.858 25 347.233 26.1574 345.14 28.4723C343.047 30.7872 342 33.6298 342 37C342 40.6426 343.063 43.5532 345.188 45.7319C347.346 47.9106 350.164 49 353.643 49C357.346 49 360.132 47.7234 362 45.1702Z" fill="#231F20"/>
<path d="M371 20H367V16H371V20Z" fill="#231F20"/>
<path d="M371 49H367V24H371V49Z" fill="#231F20"/>
<path d="M248 20H252V16H248V20Z" fill="#231F20"/>
<path d="M248 49H252V24H248V49Z" fill="#231F20"/>
<path fill-rule="evenodd" clip-rule="evenodd" d="M379.662 27.1071L380.659 30.3961C382.654 29.2655 384.616 28.7002 386.547 28.7002C388.447 28.7002 389.729 29.2655 390.394 30.3961C391.059 31.5268 391.391 33.394 391.391 35.9979C390.093 35.0043 388.32 34.5075 386.073 34.5075C383.667 34.5075 381.72 35.1756 380.232 36.5118C378.744 37.8137 378 39.5953 378 41.8565C378 44.0493 378.601 45.7966 379.804 47.0985C381.007 48.3662 382.59 49 384.553 49C387.434 49 389.713 47.8865 391.391 45.6595V48.6403H395V34.4561C395 31.2355 394.351 28.8544 393.053 27.3126C391.755 25.7709 389.666 25 386.785 25C384.157 25 381.783 25.7024 379.662 27.1071ZM391.391 42.3191C389.84 44.3062 388.004 45.2998 385.883 45.2998C384.68 45.2998 383.73 44.9743 383.034 44.3233C382.369 43.6724 382.036 42.7816 382.036 41.651C382.036 40.4518 382.464 39.5268 383.318 38.8758C384.205 38.1906 385.297 37.848 386.595 37.848C388.463 37.848 390.061 38.3619 391.391 39.3897V42.3191Z" fill="#231F20"/>
<path d="M86.4193 19.2499H75V15.4722H101.8V19.2499H90.3811V48.5277H86.4193V19.2499Z" fill="#231F20"/>
</g>
</svg>
