<svg width="22" height="22" viewBox="0 0 22 22" fill="none" xmlns="http://www.w3.org/2000/svg">
<path d="M19.0596 0.5H2.55957C1.96283 0.5 1.39054 0.737053 0.96858 1.15901C0.546623 1.58097 0.30957 2.15326 0.30957 2.75L0.30957 19.25C0.30957 19.8467 0.546623 20.419 0.96858 20.841C1.39054 21.2629 1.96283 21.5 2.55957 21.5H8.99316V14.3605H6.04004V11H8.99316V8.43875C8.99316 5.52547 10.7275 3.91625 13.3839 3.91625C14.6561 3.91625 15.9864 4.14313 15.9864 4.14313V7.0025H14.5207C13.0764 7.0025 12.626 7.89875 12.626 8.81797V11H15.85L15.3344 14.3605H12.626V21.5H19.0596C19.6563 21.5 20.2286 21.2629 20.6506 20.841C21.0725 20.419 21.3096 19.8467 21.3096 19.25V2.75C21.3096 2.15326 21.0725 1.58097 20.6506 1.15901C20.2286 0.737053 19.6563 0.5 19.0596 0.5Z" fill="#231F20"/>
</svg>
