<svg width="22" height="21" viewBox="0 0 22 21" fill="none" xmlns="http://www.w3.org/2000/svg">
<path d="M11.3096 7.99969C10.8151 7.99987 10.3318 8.14667 9.92073 8.42152C9.50968 8.69637 9.18935 9.08693 9.00025 9.54382C8.81115 10.0007 8.76177 10.5034 8.85835 10.9884C8.95493 11.4733 9.19314 11.9187 9.54285 12.2683C9.89256 12.6179 10.3381 12.8559 10.8231 12.9523C11.3081 13.0487 11.8107 12.9992 12.2676 12.8099C12.7244 12.6206 13.1148 12.3002 13.3895 11.889C13.6642 11.4778 13.8108 10.9945 13.8108 10.5C13.8103 9.83687 13.5466 9.20105 13.0776 8.73223C12.6086 8.26341 11.9727 7.99994 11.3096 7.99969ZM17.1554 6.07781C17.0281 5.75524 16.8359 5.46226 16.5906 5.21705C16.3454 4.97184 16.0525 4.77963 15.7299 4.65234C14.7455 4.26375 12.4018 4.35094 11.3096 4.35094C10.2174 4.35094 7.87598 4.26047 6.88879 4.65234C6.56622 4.77963 6.27324 4.97184 6.02803 5.21705C5.78282 5.46226 5.59061 5.75524 5.46332 6.07781C5.0752 7.06219 5.16191 9.40828 5.16191 10.4995C5.16191 11.5908 5.0752 13.9341 5.4652 14.9217C5.59248 15.2443 5.78469 15.5373 6.0299 15.7825C6.27511 16.0277 6.56809 16.2199 6.89066 16.3472C7.87504 16.7358 10.2188 16.6486 11.3114 16.6486C12.4041 16.6486 14.7446 16.7391 15.7318 16.3472C16.0543 16.2199 16.3473 16.0277 16.5925 15.7825C16.8377 15.5373 17.0299 15.2443 17.1572 14.9217C17.5486 13.9373 17.4586 11.5913 17.4586 10.5C17.4586 9.40875 17.5486 7.06594 17.1572 6.07828L17.1554 6.07781ZM11.3096 14.3438C10.5493 14.3438 9.8062 14.1183 9.1741 13.696C8.542 13.2736 8.04933 12.6733 7.75841 11.9709C7.46748 11.2686 7.39137 10.4957 7.53968 9.75012C7.68799 9.00451 8.05407 8.31962 8.59163 7.78206C9.12919 7.2445 9.81408 6.87842 10.5597 6.73011C11.3053 6.58179 12.0782 6.65791 12.7805 6.94884C13.4829 7.23976 14.0832 7.73243 14.5055 8.36453C14.9279 8.99663 15.1533 9.73978 15.1533 10.5C15.1539 11.0049 15.0549 11.505 14.862 11.9717C14.669 12.4383 14.3859 12.8623 14.0289 13.2193C13.6718 13.5764 13.2479 13.8595 12.7812 14.0524C12.3146 14.2454 11.8145 14.3444 11.3096 14.3438ZM15.3118 7.39219C15.1343 7.39228 14.9608 7.33974 14.8132 7.24121C14.6656 7.14268 14.5505 7.0026 14.4825 6.83866C14.4146 6.67473 14.3967 6.49432 14.4313 6.32026C14.4658 6.14619 14.5513 5.98628 14.6767 5.86076C14.8022 5.73524 14.962 5.64974 15.1361 5.61509C15.3101 5.58043 15.4906 5.59817 15.6545 5.66606C15.8185 5.73395 15.9586 5.84895 16.0572 5.9965C16.1558 6.14405 16.2085 6.31753 16.2085 6.495C16.209 6.61285 16.1862 6.72964 16.1414 6.83866C16.0967 6.94769 16.0309 7.04681 15.9477 7.13034C15.8646 7.21387 15.7658 7.28016 15.657 7.32542C15.5482 7.37067 15.4315 7.394 15.3136 7.39406L15.3118 7.39219ZM19.5596 0H3.05957C2.46283 0 1.89054 0.237053 1.46858 0.65901C1.04662 1.08097 0.80957 1.65326 0.80957 2.25L0.80957 18.75C0.80957 19.3467 1.04662 19.919 1.46858 20.341C1.89054 20.7629 2.46283 21 3.05957 21H19.5596C20.1563 21 20.7286 20.7629 21.1506 20.341C21.5725 19.919 21.8096 19.3467 21.8096 18.75V2.25C21.8096 1.65326 21.5725 1.08097 21.1506 0.65901C20.7286 0.237053 20.1563 0 19.5596 0ZM18.7571 13.5938C18.6966 14.7952 18.4224 15.8597 17.5454 16.7344C16.6683 17.6091 15.6047 17.8889 14.4047 17.9461C13.1668 18.0159 9.4552 18.0159 8.21723 17.9461C7.01582 17.8856 5.95504 17.6109 5.0766 16.7344C4.19816 15.8578 3.92207 14.7928 3.86488 13.5938C3.79504 12.3553 3.79504 8.64328 3.86488 7.40625C3.92535 6.20484 4.19629 5.14031 5.0766 4.26562C5.95691 3.39094 7.02051 3.11438 8.21723 3.05719C9.4552 2.98734 13.1668 2.98734 14.4047 3.05719C15.6061 3.11766 16.6702 3.39234 17.5454 4.26891C18.4205 5.14547 18.6999 6.21047 18.7571 7.41187C18.8269 8.64563 18.8269 12.3544 18.7571 13.5938Z" fill="#231F20"/>
</svg>
