<svg width="22" height="22" viewBox="0 0 22 22" fill="none" xmlns="http://www.w3.org/2000/svg">
<path d="M19.8096 0.5H1.80488C0.979883 0.5 0.30957 1.17969 0.30957 2.01406V19.9859C0.30957 20.8203 0.979883 21.5 1.80488 21.5H19.8096C20.6346 21.5 21.3096 20.8203 21.3096 19.9859V2.01406C21.3096 1.17969 20.6346 0.5 19.8096 0.5ZM6.65645 18.5H3.54395V8.47812H6.66113V18.5H6.65645ZM5.10019 7.10938C4.10176 7.10938 3.29551 6.29844 3.29551 5.30469C3.29551 4.31094 4.10176 3.5 5.10019 3.5C6.09395 3.5 6.90488 4.31094 6.90488 5.30469C6.90488 6.30312 6.09863 7.10938 5.10019 7.10938ZM18.3236 18.5H15.2111V13.625C15.2111 12.4625 15.1877 10.9672 13.5939 10.9672C11.9721 10.9672 11.7236 12.2328 11.7236 13.5406V18.5H8.61113V8.47812H11.5971V9.84687H11.6393C12.0564 9.05937 13.0736 8.22969 14.5877 8.22969C17.7377 8.22969 18.3236 10.3062 18.3236 13.0062V18.5Z" fill="#231F20"/>
</svg>
