<svg width="22" height="22" viewBox="0 0 22 22" fill="none" xmlns="http://www.w3.org/2000/svg">
<path d="M19.0596 0.5H2.55957C1.31738 0.5 0.30957 1.50781 0.30957 2.75V19.25C0.30957 20.4922 1.31738 21.5 2.55957 21.5H19.0596C20.3018 21.5 21.3096 20.4922 21.3096 19.25V2.75C21.3096 1.50781 20.3018 0.5 19.0596 0.5ZM16.7674 7.94375C16.7768 8.075 16.7768 8.21094 16.7768 8.34219C16.7768 12.4062 13.683 17.0891 8.02988 17.0891C6.28613 17.0891 4.66895 16.5828 3.30957 15.7109C3.55801 15.7391 3.79707 15.7484 4.0502 15.7484C5.48926 15.7484 6.81113 15.2609 7.86582 14.4359C6.51582 14.4078 5.38145 13.5219 4.99238 12.3031C5.46582 12.3734 5.89238 12.3734 6.37988 12.2469C4.97363 11.9609 3.91895 10.7234 3.91895 9.22812V9.19062C4.32676 9.42031 4.80488 9.56094 5.30645 9.57969C4.88477 9.2992 4.53909 8.91869 4.30026 8.4721C4.06143 8.02552 3.93687 7.52675 3.9377 7.02031C3.9377 6.44844 4.0877 5.92344 4.35488 5.46875C5.86895 7.33437 8.14238 8.55313 10.6924 8.68438C10.2564 6.59844 11.8174 4.90625 13.6924 4.90625C14.5783 4.90625 15.3752 5.27656 15.9377 5.87656C16.6314 5.74531 17.2971 5.4875 17.8877 5.13594C17.658 5.84844 17.1752 6.44844 16.5377 6.82812C17.1564 6.7625 17.7564 6.58906 18.3096 6.35C17.8924 6.96406 17.3674 7.50781 16.7674 7.94375Z" fill="#231F20"/>
</svg>
