<svg width="19" height="18" viewBox="0 0 19 18" fill="none" xmlns="http://www.w3.org/2000/svg">
<path d="M1.56042 10H7.56042C8.11042 10 8.56042 9.55 8.56042 9V1C8.56042 0.45 8.11042 0 7.56042 0H1.56042C1.01042 0 0.560425 0.45 0.560425 1V9C0.560425 9.55 1.01042 10 1.56042 10ZM1.56042 18H7.56042C8.11042 18 8.56042 17.55 8.56042 17V13C8.56042 12.45 8.11042 12 7.56042 12H1.56042C1.01042 12 0.560425 12.45 0.560425 13V17C0.560425 17.55 1.01042 18 1.56042 18ZM11.5604 18H17.5604C18.1104 18 18.5604 17.55 18.5604 17V9C18.5604 8.45 18.1104 8 17.5604 8H11.5604C11.0104 8 10.5604 8.45 10.5604 9V17C10.5604 17.55 11.0104 18 11.5604 18ZM10.5604 1V5C10.5604 5.55 11.0104 6 11.5604 6H17.5604C18.1104 6 18.5604 5.55 18.5604 5V1C18.5604 0.45 18.1104 0 17.5604 0H11.5604C11.0104 0 10.5604 0.45 10.5604 1Z" fill="#231F20"/>
</svg>
