<svg width="16" height="16" viewBox="0 0 16 16" fill="none" xmlns="http://www.w3.org/2000/svg">
<path d="M8.00016 2.66671C5.05464 2.66671 2.66683 5.05452 2.66683 8.00004C2.66683 10.9456 5.05464 13.3334 8.00016 13.3334C10.9457 13.3334 13.3335 10.9456 13.3335 8.00004C13.3335 5.05452 10.9457 2.66671 8.00016 2.66671ZM1.3335 8.00004C1.3335 4.31814 4.31826 1.33337 8.00016 1.33337C11.6821 1.33337 14.6668 4.31814 14.6668 8.00004C14.6668 11.6819 11.6821 14.6667 8.00016 14.6667C4.31826 14.6667 1.3335 11.6819 1.3335 8.00004Z" fill="#BE881E"/>
<path d="M8.00016 9.33337C7.63197 9.33337 7.3335 9.0349 7.3335 8.66671L7.3335 4.66671C7.3335 4.29852 7.63197 4.00004 8.00016 4.00004C8.36835 4.00004 8.66683 4.29852 8.66683 4.66671L8.66683 8.66671C8.66683 9.0349 8.36835 9.33337 8.00016 9.33337Z" fill="#BE881E"/>
<path d="M7.00016 11C7.00016 10.4478 7.44788 10 8.00016 10C8.55245 10 9.00016 10.4478 9.00016 11C9.00016 11.5523 8.55245 12 8.00016 12C7.44788 12 7.00016 11.5523 7.00016 11Z" fill="#BE881E"/>
</svg>
