<svg width="16" height="20" viewBox="0 0 16 20" fill="none" xmlns="http://www.w3.org/2000/svg">
<path d="M8 0C8.55228 0 9 0.447715 9 1V11.5858L11.2929 9.29289C11.6834 8.90237 12.3166 8.90237 12.7071 9.29289C13.0976 9.68342 13.0976 10.3166 12.7071 10.7071L8.70711 14.7071C8.31658 15.0976 7.68342 15.0976 7.29289 14.7071L3.29289 10.7071C2.90237 10.3166 2.90237 9.68342 3.29289 9.29289C3.68342 8.90237 4.31658 8.90237 4.70711 9.29289L7 11.5858V1C7 0.447715 7.44772 0 8 0ZM1 15C1.55228 15 2 15.4477 2 16V18H14V16C14 15.4477 14.4477 15 15 15C15.5523 15 16 15.4477 16 16V18C16 19.1046 15.1046 20 14 20H2C0.895431 20 0 19.1046 0 18V16C0 15.4477 0.447715 15 1 15Z" fill="#58595B"/>
</svg>
