<svg width="56" height="55" viewBox="0 0 56 55" fill="none" xmlns="http://www.w3.org/2000/svg">
<path d="M28.0003 5.83334C16.0342 5.83334 6.33366 15.5338 6.33366 27.5C6.33366 39.4662 16.0342 49.1667 28.0003 49.1667C39.9665 49.1667 49.667 39.4662 49.667 27.5C49.667 15.5338 39.9665 5.83334 28.0003 5.83334ZM0.916992 27.5C0.916992 12.5423 13.0426 0.416672 28.0003 0.416672C42.958 0.416672 55.0837 12.5423 55.0837 27.5C55.0837 42.4577 42.958 54.5833 28.0003 54.5833C13.0426 54.5833 0.916992 42.4577 0.916992 27.5ZM16.6061 16.1058C17.6637 15.0481 19.3786 15.0481 20.4362 16.1058L28.0003 23.6698L35.5644 16.1058C36.6221 15.0481 38.3369 15.0481 39.3946 16.1058C40.4522 17.1634 40.4522 18.8783 39.3946 19.9359L31.8305 27.5L39.3946 35.0641C40.4522 36.1218 40.4522 37.8366 39.3946 38.8943C38.3369 39.9519 36.6221 39.9519 35.5644 38.8943L28.0003 31.3302L20.4362 38.8943C19.3786 39.9519 17.6637 39.9519 16.6061 38.8943C15.5484 37.8366 15.5484 36.1218 16.6061 35.0641L24.1702 27.5L16.6061 19.9359C15.5484 18.8783 15.5484 17.1634 16.6061 16.1058Z" fill="#BE1E2D"/>
</svg>
