<svg width="152" height="35" viewBox="0 0 152 35" fill="none" xmlns="http://www.w3.org/2000/svg">
<path d="M11.3709 17.9539C11.3872 18.6573 11.2607 19.3567 10.999 20.0098C10.7373 20.6629 10.3458 21.2562 9.84831 21.7537C9.35079 22.2512 8.75753 22.6427 8.10441 22.9044C7.45129 23.1661 6.75188 23.2926 6.04846 23.2763H1.69354V29.5665H0V12.6314H6.04846C6.75242 12.6131 7.45274 12.7382 8.10679 12.9992C8.76083 13.2602 9.35491 13.6515 9.85285 14.1495C10.3508 14.6474 10.7422 15.2415 11.0032 15.8956C11.2641 16.5496 11.3893 17.2499 11.3709 17.9539ZM9.6774 17.9539C9.6774 15.7763 8.15327 14.2283 6.04846 14.2283H1.69354V21.6795H6.04846C8.15327 21.6795 9.6774 20.1072 9.6774 17.9539Z" fill="white"/>
<path d="M25.0653 17.4697V29.5663H23.4686V27.1957C22.9557 28.0259 22.2352 28.708 21.3782 29.1746C20.5212 29.6413 19.5573 29.8764 18.5816 29.8567C16.9174 29.8311 15.3299 29.152 14.1621 27.9661C12.9942 26.7801 12.3396 25.1825 12.3396 23.518C12.3396 21.8536 12.9942 20.2559 14.1621 19.0699C15.3299 17.884 16.9174 17.2049 18.5816 17.1794C19.5573 17.1597 20.5213 17.3949 21.3783 17.8616C22.2353 18.3284 22.9558 19.0106 23.4686 19.8409V17.4697H25.0653ZM23.4686 23.5183C23.4638 22.5767 23.1803 21.6576 22.6536 20.877C22.127 20.0964 21.381 19.4893 20.5097 19.1323C19.6384 18.7752 18.6809 18.6843 17.7579 18.8709C16.835 19.0576 15.988 19.5134 15.3239 20.1809C14.6598 20.8484 14.2082 21.6977 14.0263 22.6216C13.8444 23.5454 13.9401 24.5025 14.3016 25.372C14.663 26.2415 15.2739 26.9844 16.0572 27.507C16.8404 28.0297 17.761 28.3086 18.7026 28.3086C19.3323 28.3148 19.9568 28.195 20.5395 27.9562C21.1221 27.7174 21.6511 27.3644 22.0953 26.918C22.5394 26.4716 22.8897 25.9408 23.1256 25.357C23.3614 24.7731 23.4781 24.1479 23.4686 23.5183H23.4686Z" fill="white"/>
<path d="M31.3804 19.0185V26.3491C31.3804 28.4294 32.5175 28.2603 34.8643 28.1633V29.5665C31.5982 30.0505 29.7837 29.2519 29.7837 26.3491V19.0185H27.2434V17.4698H29.7837V14.5668L31.3804 14.0828V17.4698H34.8643V19.0185H31.3804Z" fill="white"/>
<path d="M42.9457 17.2764V18.8247C41.0101 18.8247 39.1231 19.8409 39.1231 22.8407V29.5664H37.5264V17.4697H39.1231V19.4779C39.9698 17.7843 41.3973 17.2764 42.9457 17.2764Z" fill="white"/>
<path d="M44.7605 13.7443C44.7605 13.5146 44.8285 13.29 44.9561 13.099C45.0837 12.908 45.265 12.7592 45.4772 12.6712C45.6894 12.5833 45.9229 12.5603 46.1482 12.605C46.3735 12.6498 46.5804 12.7604 46.7428 12.9228C46.9053 13.0852 47.0159 13.2921 47.0607 13.5174C47.1056 13.7426 47.0826 13.9761 46.9947 14.1883C46.9068 14.4006 46.758 14.5819 46.567 14.7096C46.3761 14.8372 46.1515 14.9053 45.9219 14.9053C45.6139 14.9052 45.3186 14.7829 45.1009 14.5652C44.8831 14.3475 44.7607 14.0522 44.7605 13.7443ZM45.1234 17.4699H46.7201V29.5665H45.1234V17.4699Z" fill="white"/>
<path d="M62.1071 17.4697V29.5663H60.5104V27.1957C59.9975 28.0259 59.277 28.708 58.42 29.1746C57.5629 29.6413 56.599 29.8764 55.6234 29.8567C53.9591 29.8311 52.3717 29.152 51.2038 27.9661C50.036 26.7801 49.3813 25.1825 49.3813 23.518C49.3813 21.8536 50.036 20.2559 51.2038 19.0699C52.3717 17.884 53.9591 17.2049 55.6234 17.1794C56.5991 17.1597 57.563 17.3949 58.4201 17.8616C59.2771 18.3284 59.9976 19.0106 60.5104 19.8409V17.4697H62.1071ZM60.5104 23.5183C60.5056 22.5767 60.222 21.6576 59.6954 20.877C59.1688 20.0964 58.4228 19.4893 57.5515 19.1323C56.6802 18.7752 55.7226 18.6843 54.7997 18.8709C53.8767 19.0576 53.0298 19.5134 52.3656 20.1809C51.7015 20.8484 51.25 21.6977 51.068 22.6215C50.8861 23.5454 50.9819 24.5025 51.3433 25.372C51.7048 26.2414 52.3157 26.9844 53.0989 27.507C53.8822 28.0297 54.8027 28.3086 55.7443 28.3086C56.374 28.3148 56.9985 28.195 57.5812 27.9562C58.1639 27.7174 58.6929 27.3644 59.137 26.918C59.5811 26.4716 59.9315 25.9408 60.1673 25.357C60.4032 24.7731 60.5198 24.1479 60.5104 23.5183Z" fill="white"/>
<path d="M75.0274 26.6292V29.8226H65.2292V12.8875H68.5678V26.6292H75.0274Z" fill="white"/>
<path d="M82.5765 27.3308C83.0907 27.3506 83.6025 27.2518 84.0723 27.0421C84.5422 26.8323 84.9574 26.5173 85.2859 26.1212L87.8023 27.5726C86.6652 29.218 84.8504 30.1614 82.528 30.1614C78.4636 30.1614 75.8992 27.3793 75.8992 23.7743C75.8992 20.1696 78.4878 17.3875 82.2862 17.3875C85.8666 17.3875 88.4069 20.2178 88.4069 23.7743C88.405 24.2045 88.3646 24.6336 88.286 25.0566H79.1652C79.6007 26.6534 80.9312 27.3308 82.5765 27.3308ZM85.2859 22.6372C85.1672 21.9355 84.7975 21.3008 84.2456 20.8513C83.6938 20.4018 82.9974 20.1682 82.2862 20.1939C80.6169 20.1939 79.4798 21.0888 79.1167 22.6372H85.2859Z" fill="white"/>
<path d="M101.883 22.3953V29.8226H98.7626V22.7823C98.7626 21.1373 97.7706 20.2905 96.3674 20.2905C94.843 20.2905 93.7059 21.1858 93.7059 23.2906V29.8226H90.5852V17.726H93.7059V19.081C94.4317 17.9921 95.6898 17.3875 97.3109 17.3875C99.8754 17.3874 101.883 19.1777 101.883 22.3953Z" fill="white"/>
<path d="M116.836 12.8875V29.8226H113.715V28.3951C112.844 29.508 111.561 30.1614 109.795 30.1614C106.554 30.1614 103.892 27.3792 103.892 23.7743C103.892 20.1696 106.554 17.3874 109.795 17.3874C111.561 17.3874 112.844 18.0405 113.715 19.1534V12.8875H116.836ZM113.715 23.7743C113.715 21.7422 112.287 20.3629 110.376 20.3629C108.44 20.3629 107.013 21.7422 107.013 23.7743C107.013 25.8066 108.44 27.1856 110.376 27.1856C112.287 27.1856 113.715 25.8066 113.715 23.7743Z" fill="white"/>
<path d="M119.328 14.3632C119.326 13.9818 119.437 13.6082 119.647 13.29C119.858 12.9718 120.158 12.7234 120.51 12.5763C120.862 12.4292 121.25 12.39 121.624 12.4638C121.998 12.5376 122.342 12.721 122.612 12.9908C122.882 13.2605 123.065 13.6043 123.139 13.9785C123.213 14.3528 123.174 14.7405 123.027 15.0925C122.88 15.4444 122.631 15.7447 122.313 15.9552C121.995 16.1656 121.621 16.2767 121.24 16.2744C120.735 16.2693 120.251 16.0663 119.894 15.709C119.537 15.3517 119.334 14.8685 119.328 14.3632ZM119.691 17.7261H122.812V29.8227H119.691V17.7261Z" fill="white"/>
<path d="M136.966 22.3953V29.8226H133.845V22.7823C133.845 21.1373 132.853 20.2905 131.45 20.2905C129.926 20.2905 128.788 21.1858 128.788 23.2906V29.8226H125.667V17.726H128.788V19.081C129.514 17.9921 130.772 17.3875 132.393 17.3875C134.958 17.3874 136.966 19.1777 136.966 22.3953Z" fill="white"/>
<path d="M151.942 17.726V29.2419C151.942 33.2097 148.821 34.9999 145.628 34.9999C143.039 34.9999 140.958 34.0083 139.894 32.0483L142.555 30.5242C143.063 31.468 143.862 32.2178 145.725 32.2178C147.684 32.2178 148.894 31.1534 148.894 29.2419V27.9357C148.047 29.0728 146.74 29.7744 145.023 29.7744C141.587 29.7744 138.999 26.992 138.999 23.5809C138.999 20.1938 141.587 17.3875 145.023 17.3875C146.74 17.3875 148.047 18.089 148.894 19.2262V17.726H151.942ZM148.894 23.5809C148.894 21.6695 147.466 20.2905 145.507 20.2905C143.547 20.2905 142.12 21.6695 142.12 23.5809C142.12 25.5163 143.547 26.8953 145.507 26.8953C147.466 26.8953 148.894 25.5163 148.894 23.5809Z" fill="white"/>
<path d="M64.6437 0.747902C64.0743 0.699244 63.5016 0.705138 62.9334 0.765504C62.5688 0.794743 62.2213 0.931996 61.9352 1.15973C62.1815 0.888607 62.4065 0.598807 62.6082 0.292932C61.8542 0.567747 61.0579 0.707933 60.2555 0.707095C56.2391 0.550551 53.1133 1.57427 51.0547 3.62057C50.9287 3.74583 50.675 4.17755 50.6464 4.20226C50.6184 4.22652 50.9685 2.94283 50.9394 2.96619C47.6794 5.57879 47.1746 7.35754 47.2428 9.15937C47.255 9.47948 47.4086 9.98968 47.4139 10.4293C47.2697 10.1117 47.0426 9.83899 46.7563 9.63976C47.0191 9.98834 47.1981 10.3928 47.2794 10.8217C47.2941 10.9425 47.3117 11.1423 47.3292 11.3627C47.9229 10.5562 48.5697 9.79027 49.2653 9.06983C50.5668 7.72536 51.9883 5.86957 55.8018 4.54759C58.3459 3.66567 60.2438 3.58546 63.2687 2.69174C65.2588 2.10376 66.8493 1.53175 67.9301 0.927408C68.0232 0.614921 68.0974 0.295751 68.1668 0C66.9433 0.693642 66.049 0.80645 64.6437 0.747902Z" fill="#BE1E2D"/>
<path d="M67.9095 0.994141C66.9192 1.64677 65.4908 2.18433 63.6812 2.84175C60.7027 3.92376 58.4011 4.09751 55.9821 4.98728C52.4606 6.2826 51.1166 7.88646 49.5779 9.36582C48.2248 10.6758 47.0164 12.1274 45.9734 13.6955L46.1676 13.7444C46.503 13.3614 47.0339 12.711 47.7838 11.9272C47.8584 11.8789 47.9538 11.6622 48.2738 11.8167C48.3482 11.8428 48.4156 11.8856 48.4709 11.9418C48.5262 11.998 48.568 12.066 48.5929 12.1408C48.62 12.2264 48.6268 12.3171 48.6127 12.4057C48.6657 12.3085 48.6842 12.1964 48.6655 12.0874C48.6439 11.9705 48.5919 11.8614 48.5147 11.771C48.4375 11.6806 48.3378 11.6122 48.2257 11.5725C48.6997 11.4197 49.2024 11.3771 49.6954 11.4482C49.4258 11.2935 49.1227 11.2065 48.8122 11.1946C49.8588 10.3018 51.1392 9.72723 52.5019 9.53871C52.2419 9.40932 51.5265 9.15405 51.5265 9.15405C51.5265 9.15405 52.5007 9.05973 52.6283 9.0181C53.615 8.70039 54.6434 8.53079 55.6799 8.51484C56.8083 8.466 57.9166 8.19902 58.9434 7.72866C58.98 7.71004 56.3466 7.37814 56.3876 7.37707C57.8264 7.34002 59.3052 7.5804 60.6022 7.23839C60.6254 7.23229 59.2262 6.55803 59.2262 6.55803C59.6636 6.68334 60.1085 6.78051 60.5582 6.84895C60.8562 6.88418 61.8937 6.91667 62.5877 6.45168C62.2019 6.3134 61.7259 6.15703 61.7259 6.15703C62.1087 6.24551 62.5027 6.27564 62.8945 6.24638C62.5245 6.03577 61.5117 5.5802 61.5117 5.5802C61.8991 5.76344 62.3082 5.89659 62.7292 5.97643C63.2747 5.95104 63.8009 5.76737 64.2437 5.44784C64.2585 5.43761 63.2714 4.98276 62.8178 4.77463C63.1881 4.9366 63.933 5.22709 64.3629 5.15107C64.7037 5.08411 65.0154 4.91324 65.2551 4.66194C65.0392 4.54528 64.8154 4.44363 64.5855 4.35772C64.5855 4.35772 65.3712 4.55943 65.3874 4.54485C65.4215 4.51418 65.4555 4.48328 65.4892 4.45215C65.5183 4.42526 64.2946 4.12393 64.3234 4.09673C64.3519 4.06983 65.633 4.3171 65.6612 4.2899C66.0088 3.95554 66.3313 3.596 66.626 3.21419C66.6491 3.18404 65.6253 3.06169 65.6253 3.06169C65.6253 3.06169 66.7295 3.07708 66.7465 3.05387C66.8001 2.981 66.873 2.87685 66.873 2.87685L65.7394 2.70923C66.1045 2.76814 66.4785 2.73046 66.8245 2.59995C67.3887 2.32412 67.698 1.68067 67.9095 0.994141Z" fill="white"/>
</svg>
