<svg width="24" height="24" viewBox="0 0 24 24" fill="none" xmlns="http://www.w3.org/2000/svg">
<path d="M18.0751 1.55408L22.2481 5.90408V22.4461H6.6593V22.5001H22.3013V5.95883L18.0751 1.55408Z" fill="#646668"/>
<path d="M18.0233 1.5H6.60608V22.446H22.2481V5.90475L18.0226 1.5" fill="white"/>
<path d="M6.49135 2.625H1.69885V7.74525H16.7739V2.625H6.49135Z" fill="#646668"/>
<path d="M16.8541 7.6583H1.79639V2.5343H16.8541V7.6583Z" fill="#CF2F14"/>
<path d="M6.78884 3.40045H5.80859V7.00045H6.57959V5.7862L6.74984 5.79595C6.91527 5.79311 7.07915 5.76347 7.23509 5.7082C7.37182 5.66117 7.4976 5.58693 7.60484 5.48995C7.71397 5.39757 7.8 5.28097 7.85609 5.14945C7.93132 4.93083 7.95818 4.69848 7.93484 4.46845C7.93016 4.30413 7.90135 4.14139 7.84934 3.98545C7.802 3.87288 7.73174 3.7714 7.64303 3.68747C7.55432 3.60354 7.44911 3.539 7.33409 3.49795C7.23465 3.46195 7.13191 3.43582 7.02734 3.41995C6.94816 3.40773 6.86821 3.40122 6.78809 3.40045H6.78884ZM6.64634 5.12095H6.57959V4.01095H6.72434C6.78823 4.00634 6.85233 4.01615 6.91192 4.03965C6.9715 4.06315 7.02505 4.09973 7.06859 4.1467C7.15883 4.26746 7.20704 4.41445 7.20584 4.5652C7.20584 4.7497 7.20584 4.91695 7.03934 5.0347C6.91939 5.10067 6.78286 5.13038 6.64634 5.1202" fill="#646668"/>
<path d="M9.39991 3.39071C9.31666 3.39071 9.23566 3.39671 9.17866 3.39896L9.00016 3.40346H8.41516V7.00346H9.10366C9.36678 7.01067 9.62875 6.96607 9.87466 6.87221C10.0726 6.7937 10.2479 6.66714 10.3847 6.50396C10.5177 6.3393 10.6132 6.14758 10.6644 5.94221C10.7233 5.70961 10.7521 5.47039 10.7499 5.23046C10.7645 4.94707 10.7425 4.663 10.6847 4.38521C10.6297 4.18073 10.5269 3.99227 10.3847 3.83546C10.2731 3.70883 10.1364 3.60668 9.98341 3.53546C9.852 3.47464 9.71376 3.42982 9.57166 3.40196C9.51515 3.39262 9.45793 3.38835 9.40066 3.38921L9.39991 3.39071ZM9.26416 6.34196H9.18916V4.04396H9.19891C9.35353 4.02617 9.50997 4.05406 9.64891 4.12421C9.75066 4.20545 9.83357 4.30781 9.89191 4.42421C9.95488 4.54671 9.99117 4.68116 9.99841 4.81871C10.0052 4.98371 9.99841 5.11871 9.99841 5.23046C10.0015 5.35918 9.99318 5.48793 9.97366 5.61521C9.95054 5.74588 9.90781 5.87231 9.84691 5.99021C9.77798 6.09982 9.68485 6.19219 9.57466 6.26021C9.48213 6.32005 9.37255 6.34798 9.26266 6.33971" fill="#646668"/>
<path d="M13.0725 3.4035H11.25V7.0035H12.021V5.5755H12.996V4.9065H12.021V4.0725H13.071V3.4035" fill="#646668"/>
<path d="M16.3359 15.1913C16.3359 15.1913 18.7269 14.7578 18.7269 15.5745C18.7269 16.3913 17.2456 16.059 16.3359 15.1913ZM14.5681 15.2535C14.1883 15.3374 13.818 15.4603 13.4634 15.6203L13.7634 14.9453C14.0634 14.2703 14.3746 13.35 14.3746 13.35C14.7326 13.9525 15.1491 14.5182 15.6181 15.039C15.2644 15.0917 14.9139 15.1639 14.5681 15.255V15.2535ZM13.6216 10.3785C13.6216 9.66676 13.8519 9.47251 14.0311 9.47251C14.2104 9.47251 14.4121 9.55876 14.4189 10.1768C14.3605 10.7982 14.2304 11.4108 14.0311 12.0023C13.7582 11.5056 13.617 10.9474 13.6209 10.3808L13.6216 10.3785ZM10.1349 18.2655C9.40138 17.8268 11.6731 16.476 12.0849 16.4325C12.0826 16.4333 10.9029 18.7245 10.1349 18.2655ZM19.4251 15.6713C19.4176 15.5963 19.3501 14.766 17.8726 14.8013C17.2568 14.7913 16.6412 14.8347 16.0329 14.931C15.4436 14.3373 14.9361 13.6677 14.5239 12.9398C14.7836 12.1893 14.9408 11.4073 14.9911 10.6148C14.9694 9.71476 14.7541 9.19876 14.0641 9.20626C13.3741 9.21376 13.2736 9.81751 13.3644 10.716C13.4533 11.3198 13.621 11.9093 13.8631 12.4695C13.8631 12.4695 13.5444 13.4618 13.1229 14.4488C12.7014 15.4358 12.4134 15.9533 12.4134 15.9533C11.6804 16.1919 10.9904 16.5464 10.3696 17.0033C9.75164 17.5785 9.50038 18.0203 9.82588 18.462C10.1064 18.843 11.0881 18.9293 11.9656 17.7795C12.4319 17.1857 12.8578 16.5613 13.2406 15.9105C13.2406 15.9105 14.5786 15.5438 14.9949 15.4433C15.4111 15.3428 15.9144 15.2633 15.9144 15.2633C15.9144 15.2633 17.1361 16.4925 18.3144 16.449C19.4926 16.4055 19.4356 15.7448 19.4281 15.6728" fill="#CF2F14"/>
<path d="M17.9656 1.55774V5.96249H22.1903L17.9656 1.55774Z" fill="#646668"/>
<path d="M18.0232 1.5V5.90475H22.2479L18.0232 1.5Z" fill="white"/>
<path d="M6.73123 3.34271H5.75098V6.94271H6.52498V5.72921L6.69598 5.73896C6.8614 5.73612 7.02528 5.70648 7.18123 5.65121C7.31794 5.60417 7.44372 5.52993 7.55098 5.43296C7.65928 5.34033 7.74453 5.22375 7.79998 5.09246C7.8752 4.87384 7.90207 4.64149 7.87873 4.41146C7.87404 4.24714 7.84523 4.0844 7.79323 3.92846C7.74588 3.81589 7.67562 3.71441 7.58691 3.63048C7.4982 3.54655 7.39299 3.48201 7.27798 3.44096C7.17808 3.40461 7.07482 3.37823 6.96973 3.36221C6.89055 3.35 6.81059 3.34348 6.73048 3.34271H6.73123ZM6.58873 5.06321H6.52198V3.95321H6.66748C6.73136 3.94861 6.79547 3.95841 6.85505 3.98191C6.91464 4.00541 6.96818 4.04199 7.01173 4.08896C7.10197 4.20972 7.15017 4.35672 7.14898 4.50746C7.14898 4.69196 7.14898 4.85921 6.98248 4.97696C6.86253 5.04294 6.72599 5.07264 6.58948 5.06246" fill="white"/>
<path d="M9.342 3.33297C9.25875 3.33297 9.17775 3.33897 9.12075 3.34122L8.9445 3.34572H8.3595V6.94572H9.048C9.31112 6.95293 9.57309 6.90833 9.819 6.81447C10.0169 6.73596 10.1922 6.6094 10.329 6.44622C10.462 6.28156 10.5575 6.08984 10.6087 5.88447C10.6677 5.65187 10.6964 5.41265 10.6942 5.17272C10.7088 4.88933 10.6869 4.60526 10.629 4.32747C10.5741 4.12299 10.4712 3.93454 10.329 3.77772C10.2174 3.65109 10.0808 3.54894 9.92775 3.47772C9.79633 3.4169 9.65809 3.37208 9.516 3.34422C9.45949 3.33488 9.40226 3.33061 9.345 3.33147L9.342 3.33297ZM9.2085 6.28422H9.1335V3.98622H9.14325C9.29787 3.96843 9.45431 3.99632 9.59325 4.06647C9.69499 4.14771 9.7779 4.25007 9.83625 4.36647C9.89921 4.48897 9.93551 4.62342 9.94275 4.76097C9.9495 4.92597 9.94275 5.06097 9.94275 5.17272C9.9458 5.30144 9.93752 5.43019 9.918 5.55747C9.89488 5.68814 9.85215 5.81457 9.79125 5.93247C9.72232 6.04208 9.62918 6.13445 9.519 6.20247C9.42646 6.26232 9.31689 6.29024 9.207 6.28197" fill="white"/>
<path d="M13.0149 3.34576H11.1924V6.94576H11.9634V5.51776H12.9384V4.84876H11.9634V4.01476H13.0134V3.34576" fill="white"/>
</svg>
