<svg width="19" height="18" viewBox="0 0 19 18" fill="none" xmlns="http://www.w3.org/2000/svg">
<path d="M16.5162 12.26L13.9762 11.97C13.3662 11.9 12.7662 12.11 12.3362 12.54L10.4962 14.38C7.66617 12.94 5.34617 10.63 3.90617 7.79001L5.75617 5.94001C6.18617 5.51001 6.39617 4.91001 6.32617 4.30001L6.03617 1.78001C5.91617 0.77001 5.06617 0.0100098 4.04617 0.0100098H2.31617C1.18617 0.0100098 0.246173 0.95001 0.316173 2.08001C0.846173 10.62 7.67617 17.44 16.2062 17.97C17.3362 18.04 18.2762 17.1 18.2762 15.97V14.24C18.2862 13.23 17.5262 12.38 16.5162 12.26Z" fill="#3672BD"/>
</svg>
