<svg width="55" height="55" viewBox="0 0 55 55" fill="none" xmlns="http://www.w3.org/2000/svg">
<path d="M27.5001 5.83329C15.5339 5.83329 5.83342 15.5338 5.83342 27.5C5.83342 39.4661 15.5339 49.1666 27.5001 49.1666C39.4663 49.1666 49.1668 39.4661 49.1668 27.5C49.1668 15.5338 39.4663 5.83329 27.5001 5.83329ZM0.416748 27.5C0.416748 12.5422 12.5424 0.416626 27.5001 0.416626C42.4578 0.416626 54.5834 12.5422 54.5834 27.5C54.5834 42.4577 42.4578 54.5833 27.5001 54.5833C12.5424 54.5833 0.416748 42.4577 0.416748 27.5ZM40.1327 18.7049C41.2507 19.6986 41.3514 21.4105 40.3577 22.5284L25.9132 38.7784C25.3993 39.3566 24.6626 39.6875 23.889 39.6875C23.1154 39.6875 22.3787 39.3566 21.8647 38.7784L14.6425 30.6534C13.6488 29.5355 13.7495 27.8236 14.8674 26.8299C15.9854 25.8362 17.6972 25.9369 18.691 27.0548L23.889 32.9025L36.3092 18.9298C37.3029 17.8119 39.0148 17.7112 40.1327 18.7049Z" fill="#439984"/>
</svg>
