<?xml version="1.0" encoding="iso-8859-1"?>
<!-- Generator: Adobe Illustrator 19.0.0, SVG Export Plug-In . SVG Version: 6.00 Build 0)  -->
<svg width="1.6rem" length="1.6rem" version="1.1" id="Layer_1" xmlns="http://www.w3.org/2000/svg" xmlns:xlink="http://www.w3.org/1999/xlink" x="0px" y="0px"
	 viewBox="0 0 512 512" style="enable-background:new 0 0 512 512;" xml:space="preserve">
	<path d="M208.371,426.668h-15.667c-9.816,0-17.766,7.951-17.766,17.766v15.667c0,9.816,7.951,17.766,17.766,17.766h15.667
		c9.816,0,17.766-7.951,17.766-17.766v-15.667C226.137,434.619,218.187,426.668,208.371,426.668z M209.071,460.102
		c0,0.39-0.31,0.7-0.7,0.7h-15.667c-0.39,0-0.7-0.31-0.7-0.7v-15.667c0-0.39,0.31-0.7,0.7-0.7h15.667c0.39,0,0.7,0.31,0.7,0.7
		V460.102z"/>
	<path d="M320.99,62.983c-4.682-0.543-8.917,2.813-9.459,7.494c-0.543,4.682,2.813,8.917,7.494,9.459
		c32.204,3.733,61.868,23.712,77.477,52.169c2.267,4.132,7.454,5.644,11.586,3.378c4.132-2.267,5.644-7.454,3.378-11.586
		C393.198,90.595,358.691,67.353,320.99,62.983z"/>
	<path d="M456.534,175.1c0-67.546-47.51-123.984-110.934-137.746v-3.545C345.6,15.137,330.466,0,311.799,0H89.275
		C70.602,0,55.466,15.136,55.466,33.809v444.39c0,18.667,15.137,33.801,33.809,33.801h222.524
		c18.665,0,33.801-15.136,33.801-33.801v-68.53c0-0.023,0.003-0.045,0.003-0.068s-0.003-0.045-0.003-0.068v-96.688
		C409.023,299.084,456.534,242.645,456.534,175.1z M439.467,175.1c0,59.527-41.982,109.24-97.951,121.166l-5.824,0.951
		c-6.212,1.014-11.93,1.6-17.453,1.745c-0.887,0.019-1.775,0.034-2.667,0.034c-11.174,0-22.13-1.495-32.664-4.374l8.959-1.993
		c4.6-1.023,7.5-5.582,6.477-10.183c-1.023-4.6-5.582-7.5-10.183-6.477l-33.013,7.343l-0.158-0.083l-3.126,0.823
		c-0.027,0.007-0.055,0.01-0.082,0.018l-60.204,15.842l19.421-58.263l-1.969-3.312c-0.009-0.016-0.016-0.032-0.025-0.048
		c-11.285-18.984-17.328-40.637-17.328-63.189c0-68.426,55.469-123.895,123.896-123.895c0.892,0,1.781,0.015,2.668,0.034
		c5.532,0.145,11.252,0.734,17.442,1.752l6.128,1.008C397.632,66.035,439.467,115.677,439.467,175.1z M328.533,401.068h-59.73
		c-4.713,0-8.533,3.82-8.533,8.533s3.82,8.533,8.533,8.533h59.73v60.064c0,9.239-7.495,16.734-16.734,16.734H89.275
		c-9.247,0-16.742-7.494-16.742-16.734V68.268h59.737c4.713,0,8.533-3.82,8.533-8.533s-3.82-8.533-8.533-8.533H72.533V33.809
		c0-9.248,7.495-16.742,16.742-16.742h222.524c9.24,0,16.734,7.496,16.734,16.742c-4.418,0.555-8.708,0.324-12.962,0.324
		c-77.853,0-140.962,63.112-140.962,140.971c0,24.3,6.179,47.717,17.752,68.485l-21.964,65.892
		c-0.001,0.003-0.001,0.005-0.002,0.008l-4.987,14.961l87.563-23.042c19.312,9.588,40.602,14.658,62.6,14.658
		c1.083,0,2.169-0.016,3.258-0.045c3.264-0.074,6.498-0.265,9.704-0.558V401.068z"/>
</svg>
