<svg width="75" height="33" viewBox="0 0 75 33" fill="none" xmlns="http://www.w3.org/2000/svg">
<g clip-path="url(#clip0_174:3515)">
<path fill-rule="evenodd" clip-rule="evenodd" d="M32.9481 18.1421C33.9729 18.5616 34.9977 19.0113 35.9942 19.5204C32.8027 20.8679 29.7183 22.4811 26.7704 24.3446C25.7739 23.8049 24.7491 23.2661 23.7243 22.7862C26.6849 20.9888 29.7596 19.4309 32.9481 18.1421ZM29.133 16.7341C25.8333 17.8442 22.6401 19.2787 19.5957 21.0185C20.5636 21.4083 21.5315 21.7977 22.4711 22.2173C25.4076 20.3869 28.5064 18.8617 31.7236 17.6631C30.8695 17.3332 30.0158 17.0037 29.133 16.7341Z" fill="#2267AD"/>
<path fill-rule="evenodd" clip-rule="evenodd" d="M53.1317 23.3259C53.1886 23.5055 53.3314 23.5654 53.4734 23.5654C53.5585 23.5654 53.6445 23.5654 53.7014 23.5055C53.737 23.4645 53.7572 23.4112 53.7583 23.3556C53.7583 23.2359 53.6731 23.176 53.5585 23.176L53.3596 23.1162C53.3028 23.086 53.2168 23.086 53.1599 23.0261C53.103 22.9663 53.0748 22.8767 53.0748 22.7867C53.0748 22.5472 53.2745 22.4576 53.4734 22.4576C53.6445 22.4576 53.8151 22.5472 53.872 22.757L53.73 22.7867C53.73 22.6665 53.5872 22.5769 53.4452 22.5769C53.3601 22.5769 53.2172 22.6368 53.2172 22.7565C53.2172 22.9064 53.3032 22.9361 53.417 22.9663L53.5872 22.996C53.6731 23.0257 53.7583 23.0558 53.8151 23.0856C53.872 23.1756 53.9003 23.2359 53.9003 23.3556C53.9003 23.4452 53.872 23.5654 53.7865 23.6253C53.7014 23.6856 53.5868 23.7153 53.4734 23.7153C53.2455 23.7153 53.1034 23.5951 53.0183 23.3556L53.1317 23.3259ZM54.242 23.6856H54.1287V22.4873H54.3271L54.6984 23.4457L55.0106 22.4873H55.2385V23.6856H55.0965V22.6368L54.7257 23.6856H54.612L54.242 22.6368V23.6856ZM39.8657 17.9926C37.2513 16.6778 34.549 15.5661 31.7804 14.6665C30.7838 14.9659 29.816 15.2954 28.8763 15.6253C31.7262 16.5266 34.5055 17.6584 37.1895 19.0109C38.0723 18.6512 38.9542 18.3221 39.8657 17.9926ZM44.1076 16.6742C41.4597 15.4457 38.698 14.427 35.8795 13.6181C34.9685 13.7977 34.0861 14.0075 33.2038 14.247C35.9937 15.1162 38.7263 16.1948 41.3459 17.5132C42.2565 17.2134 43.1962 16.9141 44.1076 16.6742ZM50.9397 19.0712C44.2492 21.4385 37.9859 24.824 32.321 29.0491C33.7444 29.9777 35.1109 30.9365 36.4488 31.9849C41.8389 27.4896 47.787 23.7899 54.1282 20.9883C53.0876 20.3091 52.0241 19.6697 50.9397 19.0712ZM46.3278 16.7939C39.3811 18.7115 32.862 21.8279 26.9688 25.9624C28.2784 26.6516 29.588 27.3709 30.869 28.1497C36.6485 23.9548 43.0542 20.6588 49.8863 18.5013C48.7195 17.9026 47.5519 17.3035 46.3278 16.7939Z" fill="#CD2E29"/>
<path fill-rule="evenodd" clip-rule="evenodd" d="M27.2256 2.5016C28.9051 2.5016 29.7593 3.82007 29.7593 5.58778C29.7593 7.41582 28.9334 8.70413 27.2256 8.70413C25.4891 8.70413 24.6919 7.41582 24.6919 5.58778C24.6919 3.82007 25.546 2.5016 27.2256 2.5016ZM27.2256 7.5054C27.6811 7.5054 27.8804 7.08586 27.8804 5.58778C27.8804 4.20944 27.7379 3.70033 27.2256 3.70033C26.7132 3.70033 26.5708 4.20944 26.5708 5.58778C26.5708 7.08586 26.7701 7.5054 27.2256 7.5054ZM30.9269 3.99968H30.1865V2.68121H30.9269V2.0222C30.9269 0.553829 31.6104 0.0145569 32.8058 0.0145569C33.1475 0.0145569 33.4319 0.0744246 33.7168 0.104584V1.57295C33.6063 1.53619 33.4914 1.51604 33.3755 1.51308C32.8918 1.51308 32.7207 1.72285 32.7207 2.08206V2.68166H33.7168V4.00013H32.7207V8.58439H30.9269V3.99968ZM9.77405 4.32918C9.77405 3.96952 9.63163 3.73004 9.31897 3.73004C8.86347 3.73004 8.72105 4.14957 8.72105 4.50879L7.12658 4.14913C7.32546 3.01071 8.35066 2.53131 9.37543 2.53131C10.4571 2.53131 11.5961 3.01026 11.5961 4.32873V7.62468C11.5961 8.28369 11.6816 8.49346 11.7667 8.58349H9.88782C9.85959 8.40388 9.83093 8.1338 9.83093 8.04422C9.51786 8.37372 8.97681 8.70368 8.46443 8.70368C7.55342 8.70368 6.86995 8.04422 6.89861 6.96567C6.92684 5.43743 8.5782 4.95803 9.77405 4.80858V4.32918ZM9.77405 5.73723C9.14789 5.7971 8.66374 6.06674 8.66374 6.81577C8.66374 7.23531 8.86304 7.44508 9.20478 7.44508C9.40409 7.44508 9.63205 7.29518 9.77405 7.08541V5.73723ZM14.4715 4.35889V8.58394H12.6495V2.68121H14.4146L14.4433 3.2808C14.8419 2.86126 15.3256 2.53176 16.0373 2.53176C16.8345 2.53176 17.2901 3.10074 17.2901 3.9101V8.58439H15.468V4.50924C15.468 4.17973 15.3538 4.00013 15.0408 4.00013C14.8419 3.99968 14.6422 4.11941 14.4715 4.35889ZM18.4004 0.194162H20.2224V4.44892H20.2506L21.5889 2.68121H23.3822L21.8737 4.47908L23.3822 8.58394H21.5033L20.621 6.00687H20.5923L20.2224 6.45656V8.58394H18.4004V0.194162ZM4.96283 4.20945C5.81695 4.50924 6.44311 5.25828 6.44311 6.33727C6.44311 7.77503 5.36145 8.58439 3.82386 8.58439H0.777344V0.194162H3.90898C5.33237 0.194162 6.24337 1.0931 6.24337 2.23151C6.24337 3.34022 5.53168 3.90965 4.9624 4.14913V4.20945H4.96283ZM2.71398 7.02599H3.4539C3.9094 7.02599 4.47867 6.81622 4.47867 5.97716C4.47867 5.34831 4.10871 4.92877 3.4539 4.92877H2.71398V7.02599ZM2.71398 3.51982H3.39702C4.10871 3.51982 4.39356 3.10029 4.39356 2.62089C4.39356 1.81198 3.88117 1.69224 3.42567 1.69224H2.71398V3.51982ZM70.4705 4.32918C70.4705 3.96952 70.2994 3.73004 69.9867 3.73004C69.559 3.73004 69.4171 4.14957 69.3888 4.50879L67.8234 4.14913C68.0223 3.01071 69.0471 2.53131 70.0723 2.53131C71.1539 2.53131 72.2925 3.01026 72.2925 4.32873V7.62468C72.2925 8.28369 72.3776 8.49346 72.4353 8.58349H70.5842C70.556 8.40388 70.5274 8.1338 70.5274 8.04422C70.2143 8.37372 69.6737 8.70368 69.1322 8.70368C68.2503 8.70368 67.5382 8.04422 67.5668 6.96567C67.6237 5.43743 69.2751 4.95803 70.4705 4.80858V4.32918ZM70.4705 5.73723C69.8439 5.7971 69.3602 6.06674 69.3602 6.81577C69.3602 7.23531 69.5591 7.44508 69.8721 7.44508C70.1001 7.44508 70.299 7.29518 70.47 7.08541V5.73723H70.4705ZM51.8235 6.03703C51.7945 6.54614 51.9373 7.44508 52.6772 7.44508C53.1041 7.44508 53.474 7.08541 53.5592 6.63617L54.7837 7.08586C54.6986 7.3555 54.1571 8.70413 52.534 8.70413C50.7971 8.70413 50.0002 7.23576 50.0002 5.58778C50.0002 3.90965 50.8548 2.5016 52.5053 2.5016C54.2422 2.5016 54.8684 4.08971 54.8684 5.64765V6.03703H51.8235ZM53.1892 4.89816C53.1892 4.35889 53.1323 3.69988 52.5057 3.69988C51.9938 3.69988 51.794 4.35889 51.8231 4.89816H53.1892ZM59.7377 2.68121H61.5597V8.58394H59.7377V2.68121ZM59.7377 0.194162H61.5597V1.90246H59.7377V0.194162ZM65.5733 4.86845C65.5733 4.62898 65.5733 4.32918 65.4882 4.11941C65.4031 3.87949 65.2602 3.69988 64.9762 3.69988C64.3783 3.69988 64.2928 4.47863 64.2928 5.67736C64.2928 6.99583 64.4916 7.44508 64.9762 7.44508C65.602 7.44508 65.6588 6.75591 65.6588 6.30666L67.0822 6.51643C66.9402 7.95464 66.1434 8.70368 64.8334 8.70368C63.2111 8.70368 62.3565 7.2056 62.3565 5.73723C62.3565 4.11942 63.2111 2.5016 64.9185 2.5016C66.8265 2.5016 67.1395 4.26931 67.1395 4.86845H65.5733ZM36.8767 0.194162H39.5246L41.2046 8.58394H39.2684L38.9553 6.87609H37.1046L36.7347 8.58394H34.9982L36.8767 0.194162ZM37.3608 5.40773H38.67L38.1012 1.99204H38.0434L37.3608 5.40773ZM55.6091 2.68121H57.3743V3.46041H57.4025C57.7725 2.8311 58.4559 2.53176 59.1676 2.53176V4.44937C58.9396 4.35934 58.7408 4.29947 58.4277 4.29947C57.9439 4.29947 57.6309 4.47908 57.4311 4.74917V8.58439H55.6091V2.68121ZM46.4135 4.35889V8.58394H44.6202V4.53895C44.6202 4.20944 44.5351 3.99968 44.1933 3.99968C44.0223 3.99968 43.7383 4.14957 43.5954 4.35889V8.58394H41.8021V2.68121H43.5672L43.5954 3.2808C43.994 2.89142 44.5637 2.53176 45.2185 2.53176C45.7874 2.53176 46.1573 2.86126 46.3289 3.31051H46.3571C46.6702 2.95084 47.2108 2.53176 47.952 2.53176C48.7206 2.53176 49.2325 3.04087 49.2325 3.87994V8.58439H47.4392V4.5394C47.4392 4.20989 47.3541 4.00013 47.0123 4.00013C46.7839 3.99968 46.5282 4.20944 46.4135 4.35889ZM73.1753 7.89477C73.1753 7.44508 73.5162 7.08586 73.9721 7.08586C74.0731 7.08545 74.1732 7.10608 74.2667 7.14659C74.3601 7.18709 74.445 7.24666 74.5164 7.32186C74.5879 7.39705 74.6445 7.48639 74.683 7.58472C74.7214 7.68305 74.7411 7.78843 74.7407 7.89477C74.7411 8.00111 74.7214 8.10649 74.683 8.20482C74.6445 8.30315 74.5879 8.39249 74.5164 8.46768C74.445 8.54288 74.3601 8.60245 74.2667 8.64295C74.1732 8.68345 74.0731 8.70409 73.9721 8.70368C73.5162 8.70413 73.1753 8.34401 73.1753 7.89477ZM73.3173 7.89477C73.3173 8.25398 73.6021 8.52362 73.9721 8.52362C74.3138 8.52362 74.5987 8.25398 74.5987 7.89477C74.5987 7.53511 74.3138 7.23531 73.9721 7.23531C73.6021 7.23531 73.3173 7.53511 73.3173 7.89477Z" fill="#2267AD"/>
<path fill-rule="evenodd" clip-rule="evenodd" d="M74.3417 8.34428H74.1997L73.9431 7.92475H73.8002V8.34428H73.6582V7.44534H74.0568C74.1137 7.44534 74.1997 7.44534 74.2566 7.47505C74.3417 7.53492 74.3703 7.59479 74.3703 7.68482C74.3703 7.86443 74.2283 7.92475 74.0855 7.92475L74.3417 8.34428ZM73.9435 7.80501C74.0573 7.80501 74.2283 7.83472 74.2283 7.68482C74.2283 7.56508 74.1424 7.53492 74.0286 7.53492H73.8006V7.80456H73.9435V7.80501Z" fill="#2267AD"/>
</g>
<defs>
<clipPath id="clip0_174:3515">
<rect width="74" height="32" fill="white" transform="translate(0.75 0.0100098)"/>
</clipPath>
</defs>
</svg>
