<svg width="72" height="25" viewBox="0 0 72 25" fill="none" xmlns="http://www.w3.org/2000/svg">
<g clip-path="url(#clip0_174:3551)">
<path d="M47.4517 17.37H47.4353C44.5051 19.386 41.0481 21.498 37.3112 23.722L37.1631 23.802C37.1469 23.8085 37.1325 23.8184 37.1209 23.831C37.1093 23.8437 37.1007 23.8588 37.096 23.8751C37.0912 23.8914 37.0903 23.9086 37.0934 23.9253C37.0965 23.942 37.1034 23.9578 37.1137 23.9715C37.1239 23.9852 37.1373 23.9965 37.1527 24.0045C37.1681 24.0124 37.1851 24.0169 37.2026 24.0175C37.22 24.0182 37.2374 24.0149 37.2534 24.0081C37.2693 24.0012 37.2835 23.991 37.2948 23.978L37.41 23.914C40.5871 22.314 44.2252 20.41 47.8797 18.442L47.9456 18.41C47.7299 18.0885 47.5635 17.7382 47.4517 17.37ZM66.6792 2.23401C62.0699 -2.70999 32.3398 1.73801 19.7135 4.42601L19.4172 4.49001C19.3882 4.49727 19.3627 4.5139 19.3447 4.53716C19.3267 4.56043 19.3175 4.58894 19.3184 4.61801C19.32 4.63246 19.325 4.64637 19.3329 4.65869C19.3409 4.671 19.3516 4.6814 19.3643 4.68911C19.377 4.69681 19.3913 4.70162 19.4061 4.70316C19.421 4.7047 19.4361 4.70294 19.4501 4.69801L19.7464 4.65001C30.2162 2.84201 51.9952 0.330011 56.6704 4.84201C58.1026 6.21801 57.7733 7.99401 56.1107 10.09C57.0285 10.6728 57.6777 11.5791 57.9215 12.618C64.391 8.44201 68.7369 4.44201 66.6792 2.23401Z" fill="#CC2427"/>
<path d="M49.329 16.074C49.3784 17.818 50.5143 19.242 51.9958 19.242C54.8602 19.242 56.0784 15.818 55.9961 13.53C55.9302 11.786 54.7779 10.362 53.2963 10.362C50.827 10.362 49.2302 13.77 49.329 16.074ZM47.8145 15.978C47.6993 13.002 50.1027 9.96201 53.5762 9.96201C55.9138 9.96201 57.4282 11.482 57.5106 13.786C57.6258 16.922 55.387 19.802 51.7489 19.802C49.4113 19.802 47.8968 18.298 47.8145 15.978Z" fill="#013D5B"/>
<path d="M14.8242 15.194C14.6707 15.2545 14.5105 15.2975 14.3468 15.322L13.2603 15.514C12.9938 15.5324 12.735 15.609 12.5031 15.738C12.4364 15.7777 12.3797 15.8313 12.3369 15.895C12.2942 15.9586 12.2666 16.0307 12.2562 16.106C12.2392 16.1764 12.2461 16.2502 12.2757 16.3165C12.3054 16.3828 12.3563 16.4381 12.4208 16.474C12.6312 16.5883 12.8721 16.6385 13.1122 16.618C13.3578 16.6133 13.6015 16.5756 13.8365 16.506C14.053 16.4444 14.2546 16.341 14.4291 16.202C14.5445 16.1036 14.6299 15.9763 14.676 15.834C14.7559 15.6285 14.8058 15.413 14.8242 15.194ZM17.8532 13.37C17.8367 13.642 17.7873 13.882 17.7215 14.298L17.2112 17.082C17.184 17.1946 17.1969 17.3129 17.2477 17.4175C17.2985 17.5221 17.3843 17.6069 17.491 17.658V17.77H14.5444V17.066C14.097 17.3107 13.6219 17.504 13.1286 17.642C12.6725 17.7618 12.2018 17.821 11.7294 17.818C10.7746 17.818 10.2313 17.722 9.86918 17.402C9.50702 17.082 9.29302 16.858 9.30948 16.394C9.34484 16.0933 9.47083 15.8094 9.67164 15.578C9.88594 15.3443 10.1499 15.1587 10.4453 15.034C10.8245 14.8779 11.2229 14.7704 11.6306 14.714C12.1409 14.634 12.8652 14.554 13.8365 14.474C14.1655 14.4644 14.4895 14.3938 14.7913 14.266C15.0053 14.186 15.0711 14.106 15.1041 13.946C15.137 13.786 15.0711 13.498 14.676 13.418C13.6225 13.226 11.6471 13.546 10.6264 13.802L11.1697 12.346C12.4713 12.1455 13.7863 12.0385 15.1041 12.026C17.1947 12.026 17.8696 12.618 17.8532 13.37Z" fill="#013D5B"/>
<path d="M26.3477 17.77L27.3683 12.186H30.1833L29.1626 17.77H26.3477ZM27.5329 10.906C27.6152 10.442 28.356 10.074 29.1956 10.074C30.0351 10.074 30.6277 10.442 30.5454 10.906C30.4631 11.37 29.7223 11.738 28.8828 11.738C28.0432 11.738 27.4506 11.354 27.5329 10.906Z" fill="#013D5B"/>
<path d="M40.1427 15.21L39.6653 15.338L38.5624 15.53C38.3015 15.5508 38.0485 15.6273 37.8216 15.754C37.7553 15.7903 37.6986 15.8409 37.6557 15.9019C37.6129 15.963 37.5852 16.0328 37.5747 16.106C37.555 16.177 37.5587 16.2523 37.5852 16.3212C37.6118 16.39 37.6599 16.4491 37.7228 16.49C37.871 16.586 38.1014 16.618 38.4307 16.618C38.6755 16.6187 38.9193 16.5864 39.155 16.522C39.3715 16.4604 39.5731 16.357 39.7476 16.218C39.863 16.1196 39.9484 15.9923 39.9945 15.85C40.064 15.6415 40.1135 15.4273 40.1427 15.21ZM43.1717 13.37C43.1552 13.642 43.1058 13.898 43.04 14.298L42.5297 17.098C42.5025 17.2106 42.5154 17.3289 42.5662 17.4335C42.617 17.5381 42.7028 17.6228 42.8095 17.674V17.77H39.8628V17.05C39.4195 17.3064 38.9435 17.5054 38.4471 17.642C37.9848 17.757 37.5086 17.8109 37.0314 17.802C36.0931 17.802 35.5498 17.706 35.1712 17.386C34.7926 17.066 34.6115 16.842 34.628 16.394C34.6592 16.0874 34.7855 15.7973 34.9901 15.562C35.2054 15.3334 35.4695 15.1532 35.7638 15.034C36.1353 14.8726 36.5291 14.7648 36.9326 14.714C37.4594 14.634 38.1837 14.554 39.155 14.474C39.4809 14.4434 39.8016 14.3735 40.1098 14.266C40.3073 14.186 40.3896 14.106 40.4226 13.946C40.4555 13.786 40.3896 13.498 39.9945 13.418C38.941 13.21 36.9656 13.546 35.9449 13.786L36.4882 12.346C37.7897 12.1448 39.1047 12.0379 40.4226 12.026C42.5132 12.042 43.1881 12.634 43.1717 13.37Z" fill="#013D5B"/>
<path d="M8.91523 15.77C8.14807 15.9368 7.36372 16.0173 6.57764 16.01C5.24423 16.01 4.17421 15.37 4.24006 14.17C4.27298 13.386 5.24423 11.722 7.68059 11.722C8.45229 11.7047 9.21267 11.9047 9.87001 12.298L10.2157 10.362C9.33721 10.0229 8.39429 9.87013 7.45012 9.914C4.24006 9.946 1.16169 11.354 0.783067 14.234C0.404444 17.114 4.07544 17.898 5.70516 17.898C6.64349 17.898 7.6312 17.85 8.5366 17.77L8.91523 15.77Z" fill="#013D5B"/>
<path d="M31.731 12.154L31.9286 11.018L34.8588 10.41L34.546 12.154H35.9946L35.7148 13.29H34.3155L33.476 17.77H30.6281L31.4841 13.29H30.4141L30.6281 12.17H31.731V12.154Z" fill="#013D5B"/>
<path d="M46.0206 17.77H43.1562L44.6049 9.99402L47.3869 10.058L46.0206 17.77Z" fill="#013D5B"/>
<path d="M22.645 13.498C22.284 13.4991 21.9325 13.6111 21.6409 13.818C21.342 14.0602 21.1481 14.403 21.0976 14.778C20.9988 15.274 21.0482 15.61 21.2458 15.834C21.3608 15.9427 21.4976 16.0272 21.6477 16.0822C21.7979 16.1373 21.958 16.1617 22.1182 16.154C22.3677 16.1589 22.6151 16.1097 22.8426 16.01C23.0621 15.9113 23.2499 15.7565 23.3858 15.562C23.5398 15.3395 23.6461 15.0892 23.6986 14.826C23.7809 14.378 23.715 14.058 23.501 13.834C23.3918 13.7212 23.2587 13.6328 23.1109 13.5748C22.9632 13.5168 22.8042 13.4906 22.645 13.498ZM17.5254 19.706L18.8917 12.218H21.361L21.1635 13.178C21.4339 12.8493 21.7929 12.6 22.2006 12.458C22.708 12.2566 23.2493 12.1481 23.7974 12.138C24.4394 12.138 24.8345 12.17 25.3118 12.41C25.7645 12.6307 26.1165 13.0071 26.2996 13.466C26.4935 13.9497 26.5393 14.4776 26.4313 14.986C26.3627 15.4225 26.2051 15.8413 25.9676 16.2177C25.7302 16.5942 25.4176 16.9207 25.0485 17.178C24.2912 17.706 23.6163 17.85 22.645 17.85C22.3511 17.8552 22.0578 17.823 21.7725 17.754C21.5763 17.7125 21.3876 17.6424 21.2128 17.546C21.0421 17.4263 20.8873 17.2866 20.7519 17.13L20.291 19.706H17.5254Z" fill="#013D5B"/>
<path d="M68.4902 14.186C68.4737 13.738 68.2432 13.434 67.7658 13.434C66.6135 13.434 65.3953 15.626 65.1813 16.506C67.058 16.506 68.5395 15.418 68.4902 14.186ZM68.7371 17.626L68.9511 17.77C68.3914 18.874 67.2555 19.77 65.9056 19.77C64.8027 19.77 63.9138 19.066 63.8644 17.738C63.7656 15.338 66.0867 13.114 67.9634 13.114C68.77 13.114 69.5273 13.466 69.5602 14.314C69.626 16.218 66.8769 16.794 65.0661 16.826C65.0068 17.0559 64.9845 17.2934 65.0002 17.53C65.0332 18.33 65.527 18.986 66.5312 18.986C67.5354 18.986 68.2926 18.298 68.7371 17.626Z" fill="#013D5B"/>
<path d="M57.478 14.122L58.12 14.058C58.334 14.058 58.5151 14.106 58.5315 14.298C58.548 14.49 58.3175 15.258 58.2681 15.466L57.8237 17.338C57.659 18.106 57.4615 18.906 57.2969 19.546H58.4163L59.0418 16.57C60.9843 14.618 61.7251 13.978 62.1696 13.978C62.2184 13.973 62.2678 13.9786 62.3141 13.9945C62.3604 14.0104 62.4024 14.0362 62.4372 14.0699C62.4719 14.1037 62.4984 14.1446 62.5148 14.1896C62.5311 14.2346 62.5369 14.2826 62.5317 14.33C62.5482 14.666 62.3177 15.45 62.2519 15.674L61.5934 17.834C61.4617 18.33 61.3465 18.762 61.363 19.082C61.3794 19.402 61.6757 19.77 62.1037 19.77C62.9268 19.77 63.5359 18.938 64.0462 18.122L63.8981 17.85C63.6841 18.17 63.2067 18.89 62.8116 18.89C62.6964 18.89 62.5811 18.81 62.5811 18.618C62.5944 18.3187 62.6498 18.0227 62.7458 17.738L63.4701 15.194C63.6512 14.49 63.7499 14.042 63.7499 13.802C63.7499 13.562 63.4372 13.114 63.0091 13.114C62.2684 13.114 61.2806 13.642 59.2065 15.962H59.1735L59.4369 14.826C59.5851 14.202 59.7168 13.562 59.8485 13.114C59.0685 13.3834 58.2711 13.6025 57.4615 13.77L57.478 14.122Z" fill="#013D5B"/>
</g>
<defs>
<clipPath id="clip0_174:3551">
<rect width="71" height="24" fill="white" transform="translate(0.75 0.0100098)"/>
</clipPath>
</defs>
</svg>
