<svg width="79" height="15" viewBox="0 0 79 15" fill="none" xmlns="http://www.w3.org/2000/svg">
<g clip-path="url(#clip0_174:3501)">
<path d="M68.925 0.0683594C68.6203 0.0683594 68.4375 0.301693 68.4375 0.535026V3.97669H77.9437L73.6172 0.0683594H68.925Z" fill="#126BC5"/>
<path d="M78.2488 5.02668C78.2488 4.73501 78.0051 4.56001 77.7613 4.56001H74.166V13.66L78.2488 9.51835V5.02668Z" fill="#126BC5"/>
<path d="M73.0695 13.9517C73.3742 13.9517 73.557 13.7184 73.557 13.485V10.0434H64.0508L68.3773 13.9517H73.0695Z" fill="#126BC5"/>
<path d="M63.7461 8.99335C63.7461 9.28502 63.9898 9.46002 64.2336 9.46002H67.8289V0.41835L63.7461 4.56002V8.99335Z" fill="#126BC5"/>
<path d="M20.2992 1.70171V5.90171H14.2055V1.70171H12.0117V12.3184H14.2055V7.76837H20.2992V12.3184H22.5539V1.70171H20.2992Z" fill="black"/>
<path d="M49.8535 1.70171V12.26H59.6035L58.3848 10.4517H52.1082V7.76837H58.141V5.96004H52.1082V3.56837H58.3238L59.5426 1.70171H49.8535Z" fill="black"/>
<path d="M3.72344 1.70171C1.40781 1.70171 0.25 3.04337 0.25 5.02671V8.99337C0.25 11.2684 1.77344 12.3184 3.72344 12.3184H10.6703L9.39062 10.335H4.15C3.05313 10.335 2.56562 9.92671 2.56562 8.76004V5.20171C2.56562 4.03504 2.99219 3.56837 4.21094 3.56837H9.45156L10.6703 1.70171H3.72344Z" fill="black"/>
<path d="M40.1039 1.70171C38.7633 1.70171 37.4227 2.46004 37.4227 4.44337V4.96837C37.4227 7.01004 38.7633 7.82671 40.043 7.82671H44.6742C45.1617 7.82671 45.5273 7.88504 45.5273 8.70171V9.57671C45.5273 10.2767 45.1617 10.4517 44.6133 10.4517H38.5195L37.3008 12.3184H44.7961C46.6242 12.3184 47.843 11.4434 47.843 9.46004V8.76004C47.843 6.83504 46.6852 5.96004 44.918 5.96004H40.4695C39.982 5.96004 39.6164 5.84337 39.6164 5.14337V4.32671C39.6164 3.74337 39.8602 3.51004 40.4086 3.51004H46.1977L47.4164 1.70171H40.1039Z" fill="black"/>
<path d="M29.0121 1.70171L23.7715 12.26H26.2699L27.3059 10.1017H32.9731L34.009 12.26H36.5074L31.2059 1.70171H29.0121ZM30.0481 3.91837L32.059 8.29337H28.0371L30.0481 3.91837Z" fill="black"/>
</g>
<defs>
<clipPath id="clip0_174:3501">
<rect width="78" height="14" fill="white" transform="translate(0.25 0.0100098)"/>
</clipPath>
</defs>
</svg>
