<svg width="43" height="29" viewBox="0 0 43 29" fill="none" xmlns="http://www.w3.org/2000/svg">
<g clip-path="url(#clip0_174:3531)">
<path d="M13.1646 22.4112L13.0884 22.487C11.892 23.7382 10.5075 24.3992 9.08139 24.3992C6.10292 24.3992 3.94228 22.1058 3.94228 18.9424C3.94228 15.7839 6.10292 13.4869 9.08139 13.4869C10.5075 13.4869 11.892 14.1515 13.0884 15.4076L13.1646 15.4821L15.08 13.1044L15.0288 13.0409C13.436 11.1091 11.5242 10.1695 9.17424 10.1695C6.81837 10.1695 4.6613 10.9845 3.10897 12.4519C1.41855 14.0428 0.529297 16.2861 0.529297 18.9424C0.529297 21.5987 1.41855 23.8469 3.10897 25.4377C4.6613 26.9137 6.81837 27.7226 9.17424 27.7226C11.5242 27.7226 13.436 26.7818 15.0288 24.8488L15.08 24.7902L13.1646 22.4112Z" fill="#004685"/>
<path d="M17.0156 27.3983H20.3988V10.444H17.0156V27.3983Z" fill="#004685"/>
<path d="M33.6526 23.7126C32.7491 24.2771 31.9098 24.5618 31.1551 24.5618C30.0611 24.5618 29.5658 23.968 29.5658 22.6484V13.6519H33.0145V10.4604H29.5658V5.1845L26.2505 7.00749V10.4604H23.3887V13.6519H26.2505V23.2214C26.2505 25.8276 27.7552 27.6115 30.0027 27.6579C31.5277 27.6885 32.4467 27.2217 33.0038 26.8796L33.0395 26.8564L33.8526 23.5867L33.6526 23.7126Z" fill="#004685"/>
<path d="M36.4531 27.3983H39.8411V10.444H36.4531V27.3983Z" fill="#004685"/>
<path d="M41.8155 7.47206C38.7239 2.9781 33.5907 0.297368 28.3683 0.297368C23.1471 0.297368 18.0127 2.9781 14.9271 7.47206L14.7676 7.70299H18.6603L18.7032 7.65534C21.3519 4.84753 24.8113 3.36421 28.3683 3.36421C31.9253 3.36421 35.3824 4.84753 38.037 7.65534L38.0799 7.70299H41.9702L41.8155 7.47206Z" fill="#EE1C25"/>
</g>
<defs>
<clipPath id="clip0_174:3531">
<rect width="42" height="28" fill="white" transform="translate(0.25 0.0100098)"/>
</clipPath>
</defs>
</svg>
