<svg width="41" height="25" viewBox="0 0 41 25" fill="none" xmlns="http://www.w3.org/2000/svg">
<g clip-path="url(#clip0_174:3625)">
<path d="M5.79951 19.7558H6.55291V20.5224H6.56761C6.65656 20.1017 7.14387 19.6502 7.63041 19.6502C7.80832 19.6502 7.86711 19.666 7.9259 19.681V20.5224C7.82302 20.5074 7.70467 20.4775 7.58632 20.4775C7.04022 20.4775 6.597 20.9588 6.597 21.8309V23.7114H5.79951V19.7558ZM4.39712 19.9811C4.24938 19.3651 3.88041 18.8987 3.15718 18.8987C2.0789 18.8987 1.62098 19.9362 1.62098 20.9887C1.62098 22.0271 2.0789 23.0646 3.15718 23.0646C3.9392 23.0646 4.36773 22.4328 4.42652 21.6355H5.28357C5.22401 22.9441 4.36773 23.8462 3.15718 23.8462C1.65114 23.8462 0.75 22.5384 0.75 20.9887C0.75 19.4249 1.65114 18.1164 3.15718 18.1164C4.27878 18.1313 5.17992 18.8089 5.28357 19.9811H4.39712Z" fill="#003767"/>
<path d="M0.867188 8.11584H5.1045V9.36452H2.52096V10.8826H4.91267V12.1313H2.52096V14.5972H0.867188V8.11584ZM35.3002 19.7558H36.0536V20.3419L36.0683 20.3577C36.3042 19.9212 36.7181 19.6502 37.2046 19.6502C37.9882 19.6502 38.4894 20.1166 38.4894 21.0037V23.7114H37.6927V21.229C37.678 20.6129 37.456 20.3419 36.9834 20.3419C36.4373 20.3419 36.0977 20.7934 36.0977 21.3803V23.7114H35.3002V19.7558ZM31.2099 21.7411C31.2099 20.5223 31.8743 19.6502 33.0415 19.6502C34.2072 19.6502 34.8724 20.5223 34.8724 21.7411C34.8724 22.9441 34.2072 23.8162 33.0415 23.8162C31.8743 23.8162 31.2099 22.9441 31.2099 21.7411ZM34.075 21.7411C34.075 21.0494 33.7648 20.3419 33.0415 20.3419C32.3175 20.3419 32.0073 21.0494 32.0073 21.7411C32.0073 22.417 32.3175 23.1395 33.0415 23.1395C33.7648 23.1395 34.075 22.417 34.075 21.7411ZM29.9552 18.2519H30.7527V19.0791H29.9552V18.2519ZM29.9552 19.7558H30.7527V23.7114H29.9552V19.7558ZM26.0722 19.7558H26.8248V20.3419L26.8395 20.3577C27.0762 19.9212 27.4892 19.6502 27.9766 19.6502C28.7594 19.6502 29.2614 20.1166 29.2614 21.0037V23.7114H28.4639V21.229C28.4492 20.6129 28.2133 20.3419 27.7553 20.3419C27.2085 20.3419 26.8697 20.7934 26.8697 21.3803V23.7114H26.0722V19.7558ZM21.288 18.2519H22.1737V21.4402C22.1737 22.1768 22.2185 23.0189 23.3548 23.0189C24.4919 23.0189 24.5367 22.1768 24.5367 21.4402V18.2519H25.4077V21.7561C25.4077 23.1544 24.5948 23.8461 23.3548 23.8461C22.1149 23.8461 21.288 23.1544 21.288 21.7561V18.2519ZM17.1087 19.7558H17.7143V18.5678H18.5118V19.7558H19.2351V20.4026H18.5118V22.5234C18.5118 22.8834 18.5412 23.0646 18.8963 23.0646C19.0138 23.0646 19.1175 23.0646 19.2351 23.0339V23.7114C19.0579 23.7264 18.8963 23.7563 18.7184 23.7563C17.8768 23.7563 17.729 23.3955 17.7143 22.7487V20.4026H17.1087V19.7558ZM15.9724 18.2519H16.7699V19.0791H15.9724V18.2519ZM15.9724 19.7558H16.7699V23.7114H15.9724V19.7558ZM15.2631 23.7114H14.4957V23.1844H14.481C14.2745 23.6358 13.8166 23.8162 13.3587 23.8162C12.2069 23.8162 11.6608 22.8984 11.6608 21.7104C11.6608 20.2821 12.4428 19.6502 13.2256 19.6502C13.6836 19.6502 14.2003 19.8306 14.4362 20.2671H14.4517V18.2519H15.2631V23.7114ZM13.4623 23.1395C14.1856 23.1395 14.481 22.417 14.481 21.7411C14.481 20.854 14.0966 20.3419 13.477 20.3419C12.7236 20.3419 12.4583 21.0644 12.4583 21.786C12.4583 22.4627 12.7685 23.1395 13.4623 23.1395ZM8.72223 21.9664C8.72223 22.5833 9.03241 23.1395 9.69686 23.1395C10.1695 23.1395 10.4495 22.9142 10.5825 22.4777H11.3506C11.1735 23.3349 10.4944 23.8162 9.69686 23.8162C8.55979 23.8162 7.92474 22.9591 7.92474 21.7411C7.92474 20.6129 8.60388 19.6502 9.68216 19.6502C10.8339 19.6502 11.5278 20.7784 11.3947 21.9664H8.72223ZM10.5972 21.3952C10.5678 20.8383 10.2283 20.3419 9.68216 20.3419C9.12136 20.3419 8.75162 20.7934 8.72223 21.3952H10.5972Z" fill="#003767"/>
<path d="M0.867188 0.897089H3.15602L5.17876 5.75476L5.14859 0.897089H6.59584V7.40917H4.36657L2.31366 2.35612L2.32913 7.40917H0.867188V0.897089ZM34.119 8.10087H35.8022V13.3194H38.4755V14.5972H34.119V8.10087ZM29.5715 8.10087H31.5943L33.9419 14.5972H32.0816L31.6678 13.2894H29.2761L28.863 14.5972H27.2085L29.5715 8.10087ZM31.2841 12.1014L30.516 9.36453H30.4866L29.6605 12.1014H31.2841ZM21.8936 8.10087H24.669C25.7318 8.10087 26.1456 8.16074 26.4999 8.56726C26.6771 8.76263 26.9137 9.12345 26.9137 9.83012C26.9137 10.5368 26.6477 10.8377 26.3669 11.0331C25.9832 11.2892 25.6289 11.3341 25.4518 11.364V11.4089C26.6183 11.4396 26.6771 11.9958 26.8101 13.0034C26.8697 13.4399 26.9578 14.1466 27.0909 14.5972H25.3041C25.2004 14.2064 25.1563 13.7101 25.0975 13.1389C25.0241 12.3417 25.0086 12.0565 24.256 12.0565H23.5613V14.5972H21.8936V8.10087ZM23.5613 10.8826H24.1817C24.5507 10.8826 24.7278 10.8826 24.8755 10.8377C25.2306 10.7022 25.3041 10.2965 25.3041 10.1011C25.3041 9.2889 24.669 9.2889 24.1817 9.2889H23.5613V10.8826ZM16.9168 8.11584H21.3909V9.36453H18.5412V10.7022H21.2284V11.9509H18.5412V13.3343H21.4651V14.5972H16.9168V8.11584ZM10.5678 8.10087H13.0926C13.8019 8.10087 14.7464 8.1765 15.3667 8.6421C16.2524 9.2889 16.4891 10.3721 16.4891 11.3341C16.4891 12.7781 16.0753 13.8306 14.8647 14.3419C14.259 14.5972 13.5211 14.5972 13.1073 14.5972H10.5678V8.10087ZM12.2657 13.3493H12.975C14.0819 13.3343 14.7912 12.823 14.7912 11.3191C14.7912 9.3338 13.4322 9.3338 12.9155 9.3338H12.2657V13.3493ZM5.51833 8.11584H10.007V9.36453H7.15741V10.7022H9.8446V11.9509H7.15741V13.3343H10.0805V14.5972H5.51833V8.11584Z" fill="#003767"/>
<path d="M9.4023 0.897089H11.425L13.7881 7.40917H11.9124L11.4993 6.10061H9.10682L8.70846 7.40917H7.05469L9.4023 0.897089ZM11.1149 4.89761L10.3475 2.17571H10.3181L9.49126 4.89761H11.1149Z" fill="#003767"/>
<path d="M12.5469 0.897089H14.3778L15.7361 5.62004L17.1686 0.897089H18.8077L16.6372 7.40917H14.6586L12.5469 0.897089Z" fill="#003767"/>
<path d="M0.867188 17.0638H38.4755V15.3496H0.867188V17.0638ZM20.6676 0.897089L21.9671 3.63475L23.3254 0.897089H25.0241L22.6904 5.10875V7.40917H21.0219V5.03312L18.7478 0.897089H20.6676Z" fill="#003767"/>
<path d="M39.8056 15.1991C40.3076 15.1991 40.692 15.6056 40.692 16.1161C40.692 16.6282 40.3076 17.0339 39.8056 17.0339C39.3183 17.0339 38.9199 16.6282 38.9199 16.1161C38.9199 15.6056 39.3183 15.1991 39.8056 15.1991ZM39.8056 15.3346C39.4072 15.3346 39.0823 15.6804 39.0823 16.1161C39.0823 16.5526 39.4072 16.8984 39.8056 16.8984C40.2047 16.8984 40.5296 16.5526 40.5296 16.1161C40.5296 15.6804 40.2047 15.3346 39.8056 15.3346ZM39.6431 16.6432H39.4815V15.6206C39.5697 15.6206 39.6431 15.6056 39.7615 15.6056C39.9092 15.6056 40.0129 15.6355 40.0717 15.6804C40.1305 15.7253 40.1606 15.7852 40.1606 15.8908C40.1606 16.0263 40.0864 16.1019 39.968 16.1319V16.1468C40.057 16.1618 40.1165 16.2366 40.1452 16.3871C40.1606 16.5526 40.1892 16.6124 40.2047 16.6432H40.0423C40.0129 16.6124 39.9827 16.5226 39.968 16.3871C39.9386 16.2516 39.8798 16.2067 39.7468 16.2067H39.6431V16.6432ZM39.6431 16.0862H39.7615C39.8945 16.0862 39.9974 16.0263 39.9974 15.9058C39.9974 15.8159 39.9386 15.7253 39.7615 15.7253C39.7019 15.7253 39.6725 15.7253 39.6431 15.7403V16.0862ZM34.9928 3.81516C34.9928 1.82986 33.5007 0.205388 31.5963 0.0399468C31.4926 0.0249783 31.375 0.0100098 31.2714 0.0100098C31.1677 0.0100098 31.0649 0.0249783 30.9612 0.0399468C29.9131 0.130545 28.9532 0.656806 28.3034 1.51395L28.2446 1.60376L28.1711 1.70933C27.7712 2.32619 27.5508 3.04782 27.5508 3.81516C27.5508 5.78469 29.0421 7.40917 30.9318 7.58958C31.0502 7.60455 31.153 7.60455 31.2714 7.60455C31.375 7.60455 31.4926 7.60455 31.5963 7.58958C33.5007 7.40917 34.9928 5.78469 34.9928 3.81516ZM32.9693 6.6119H32.4525C32.6003 6.31174 32.7186 5.95014 32.8215 5.55938H33.6778C33.5007 5.9651 33.2647 6.32671 32.9693 6.6119ZM28.8495 5.55938H29.7205C29.8094 5.95014 29.9278 6.31174 30.0755 6.6119H29.5588C29.278 6.32671 29.0266 5.9651 28.8495 5.55938ZM27.7867 3.93569H28.2593C28.274 4.41626 28.3622 4.88265 28.5099 5.3191H28.1116C27.9197 4.89761 27.8014 4.41626 27.7867 3.93569ZM28.8936 1.98034C29.0715 1.60376 29.2927 1.27367 29.5588 1.01763H30.0902C29.9719 1.24294 29.869 1.51395 29.7801 1.79993L29.7205 2.04021C29.7205 2.04021 29.7205 2.05518 29.7205 2.07015H28.8495C28.865 2.04021 28.8789 2.01027 28.8936 1.98034ZM33.6778 2.07015H32.8215C32.7186 1.66442 32.6003 1.31857 32.4525 1.01763H32.9693C33.2647 1.3036 33.5007 1.66442 33.6778 2.07015ZM34.7561 3.69462H34.2688C34.2541 3.1983 34.1798 2.73191 34.0321 2.31122H34.4165C34.623 2.73191 34.7267 3.1983 34.7561 3.69462ZM34.0321 3.69462H32.9986C32.9986 3.1983 32.9546 2.73191 32.8664 2.31122H33.7814C33.9292 2.73191 34.0174 3.1983 34.0321 3.69462ZM29.9866 1.98034C30.0755 1.60376 30.2078 1.27367 30.3555 1.01763H31.153V2.07015H29.9572C29.9719 2.04021 29.9719 2.01027 29.9866 1.98034ZM30.2078 0.777342H29.8388C30.0461 0.611901 30.2674 0.491365 30.4886 0.401554C30.4004 0.506333 30.2975 0.626869 30.2078 0.777342ZM31.153 0.26605V0.777342H30.4886C30.6951 0.491365 30.9171 0.310955 31.153 0.26605ZM31.389 0.777342V0.26605C31.6257 0.310955 31.8469 0.491365 32.0387 0.777342H31.389ZM32.1865 1.01763C32.3342 1.3036 32.4672 1.66442 32.5701 2.07015H31.389V1.01763H32.1865ZM31.153 2.31122V3.69462H29.7654C29.7654 3.21327 29.8241 2.74767 29.9131 2.31122H31.153ZM31.153 3.93569V5.3191H29.9131C29.8241 4.89761 29.7654 4.41626 29.7654 3.93569H31.153ZM31.153 5.55938V6.6119H30.3555C30.1931 6.32671 30.0608 5.9651 29.9572 5.55938H31.153ZM31.153 6.85297V7.3493C30.9171 7.3036 30.6951 7.13816 30.5041 6.85297H31.153ZM31.389 6.85297H32.0387C31.8469 7.13816 31.6257 7.3036 31.389 7.3493V6.85297ZM31.389 6.6119V5.55938H32.5701C32.4672 5.9651 32.3342 6.32671 32.1865 6.6119H31.389ZM31.389 5.3191V3.93569H32.7627C32.7627 4.41626 32.7186 4.89761 32.6297 5.3191H31.389ZM31.389 3.69462V2.31122H32.6297C32.7186 2.73191 32.7627 3.1983 32.7627 3.69462H31.389ZM32.3195 0.777342C32.2313 0.626869 32.1431 0.506333 32.0387 0.401554C32.2754 0.476396 32.4966 0.611901 32.7032 0.777342H32.3195ZM29.6625 2.31122C29.5882 2.74767 29.5434 3.21327 29.5287 3.69462H28.4952C28.5099 3.21327 28.5989 2.73191 28.7613 2.31122H29.6625ZM28.2593 3.69462H27.7867C27.8014 3.21327 27.9051 2.73191 28.1116 2.31122H28.5099C28.3622 2.74767 28.274 3.21327 28.2593 3.69462ZM28.4952 3.93569H29.5287C29.5287 4.41626 29.5882 4.89761 29.6625 5.3191H28.7613C28.5989 4.89761 28.5099 4.41626 28.4952 3.93569ZM30.2078 6.85297C30.2975 6.98848 30.4004 7.12319 30.5041 7.22876C30.2527 7.13816 30.0307 7.01841 29.8241 6.85297H30.2078ZM32.3195 6.85297H32.7032C32.4966 7.01841 32.2754 7.13816 32.0387 7.22876C32.1431 7.12319 32.2313 6.98848 32.3195 6.85297ZM32.8664 5.3191C32.9546 4.89761 32.9986 4.41626 32.9986 3.93569H34.0321C34.0174 4.41626 33.9292 4.89761 33.7814 5.3191H32.8664ZM34.2688 3.93569H34.7561C34.7267 4.41626 34.623 4.89761 34.4165 5.3191H34.0321C34.1798 4.88265 34.2541 4.41626 34.2688 3.93569ZM34.2982 2.07015H33.9292C33.7667 1.66442 33.5602 1.31857 33.2941 1.01763H33.4125C33.7667 1.3036 34.0769 1.66442 34.2982 2.07015ZM29.1303 1.01763H29.234C29.0421 1.22797 28.8789 1.48401 28.7319 1.76999L28.6724 1.87477L28.6283 1.9953C28.6136 2.01027 28.6136 2.04021 28.5989 2.07015H28.2299C28.2887 1.96537 28.3622 1.84483 28.4365 1.75502C28.6283 1.46904 28.865 1.213 29.1303 1.01763ZM28.2299 5.55938H28.5989C28.7613 5.95014 28.9826 6.31174 29.234 6.6119H29.1303C28.7613 6.32671 28.4658 5.9651 28.2299 5.55938ZM33.4125 6.6119H33.2941C33.5602 6.31174 33.7667 5.95014 33.9292 5.55938H34.2982C34.0769 5.9651 33.7667 6.32671 33.4125 6.6119Z" fill="#003767"/>
</g>
<defs>
<clipPath id="clip0_174:3625">
<rect width="40" height="24" fill="white" transform="translate(0.75 0.0100098)"/>
</clipPath>
</defs>
</svg>
