<svg width="61" height="17" viewBox="0 0 61 17" fill="none" xmlns="http://www.w3.org/2000/svg">
<g clip-path="url(#clip0_174:3521)">
<path fill-rule="evenodd" clip-rule="evenodd" d="M12.6092 9.10702H10.7543C10.8315 8.92125 10.7933 8.66115 10.6385 8.3633L9.59497 6.68979L7.85594 3.75088C7.85594 3.75088 7.19908 2.56067 6.23304 1.85412C6.85132 2.07734 14.6576 6.46625 14.6576 6.46625C15.9331 7.21025 17.0535 9.06985 12.6092 9.10702ZM6.73519 13.8312C5.45972 14.5378 3.17962 14.5378 5.38251 10.8186C5.76886 10.1857 6.30993 9.25625 6.30993 9.25625C6.46467 9.44202 6.6966 9.55348 7.04433 9.55348H12.6092C12.6092 9.55348 14.0008 9.59062 15.1215 9.14479C14.6191 9.51634 6.73519 13.8312 6.73519 13.8312ZM4.06877 3.56479C4.06877 2.15166 5.22812 0.254302 7.46959 3.93694C7.85594 4.60666 8.39704 5.4993 8.39704 5.4993C8.16508 5.53616 7.97178 5.68538 7.77873 5.98293L6.77381 7.69389L4.99619 10.595C4.99619 10.595 4.26179 11.7481 4.10736 12.9389C4.02983 12.2688 4.06877 3.56479 4.06877 3.56479ZM8.51284 0.0685272C3.95265 0.0685272 0.28125 3.60225 0.28125 7.99143C0.28125 12.3803 3.95265 15.9515 8.51284 15.9515C13.0734 15.9515 16.7833 12.3803 16.7833 7.99143C16.7833 3.60225 13.0734 0.0685272 8.51284 0.0685272Z" fill="#FF5400"/>
<path fill-rule="evenodd" clip-rule="evenodd" d="M22.888 14.352H24.9747V8.77261H26.0955C29.0325 8.77261 32.9361 8.54907 32.9361 5.3132C32.9361 2.03991 29.2647 1.77951 26.3274 1.77951H20.4531V2.11423C22.5402 2.33746 22.888 2.63532 22.888 3.78805V14.352V14.352ZM24.9747 3.78802C24.9747 2.67218 25.0905 2.52355 27.0618 2.52355C29.2258 2.52355 30.5396 3.45336 30.5396 5.3132C30.5396 7.73106 28.2984 8.06574 26.0183 8.06574H24.9747V3.78805V3.78802ZM35.1776 4.01128C35.1776 2.48637 34.8296 2.37495 32.7426 2.11423V1.77951H37.6119L45.2251 12.0088H45.2637V1.77951H46.5393V14.352H44.684L36.4911 3.4165H36.4526V14.352H35.1776V4.01128ZM60.22 14.017C59.0607 14.3148 57.94 14.5378 55.6596 14.5378C51.0995 14.5378 48.626 11.4508 48.626 7.65643C48.626 4.27168 50.0947 1.59373 55.0799 1.59373C58.7513 1.59373 60.0655 3.08118 60.22 4.346H57.8625C57.7469 3.75091 57.3214 2.44895 54.9254 2.44895C52.3362 2.44895 50.9838 4.30914 50.9838 7.17311C50.9838 9.81416 51.6791 13.7197 57.0123 13.7197C58.4422 13.7197 59.9495 13.3104 60.22 13.2361V14.017V14.017Z" fill="#002FCD"/>
<path d="M15.1656 15.0589H15.3074C15.4555 15.0589 15.5495 14.9809 15.5495 14.8627C15.5495 14.7297 15.4488 14.6712 15.3027 14.6693C15.2356 14.6693 15.1881 14.6757 15.1656 14.6818V15.0589ZM15.0273 14.5886C15.0973 14.5746 15.1976 14.5667 15.2932 14.5667C15.4412 14.5667 15.5365 14.5929 15.6036 14.6514C15.6577 14.6971 15.688 14.7677 15.688 14.8472C15.688 14.9839 15.5988 15.0744 15.4859 15.1113V15.1158C15.5684 15.1432 15.6178 15.2169 15.6431 15.3241C15.6782 15.4682 15.7039 15.5678 15.7263 15.6077H15.5827C15.5649 15.5772 15.5416 15.4895 15.5112 15.361C15.4792 15.2182 15.4216 15.1648 15.296 15.16H15.1656V15.6077H15.0273V14.5886Z" fill="#FF5400"/>
<path d="M14.584 15.093C14.585 15.4962 14.9239 15.8218 15.3419 15.8224C15.7608 15.8218 16.0984 15.4962 16.0997 15.0929C16.0984 14.6903 15.7608 14.3651 15.3419 14.3642C14.9239 14.3651 14.585 14.6904 14.584 15.093ZM14.4512 15.093C14.4512 14.6197 14.8495 14.2359 15.3419 14.2359C15.8339 14.2359 16.2335 14.6197 16.2335 15.0929C16.2335 15.5672 15.8339 15.9515 15.3419 15.9515C14.8495 15.9515 14.4512 15.5672 14.4512 15.0929V15.093Z" fill="#FF5400"/>
</g>
<defs>
<clipPath id="clip0_174:3521">
<rect width="60" height="16" fill="white" transform="translate(0.25 0.0100098)"/>
</clipPath>
</defs>
</svg>
