<svg width="103" height="17" viewBox="0 0 103 17" fill="none" xmlns="http://www.w3.org/2000/svg">
<g clip-path="url(#clip0_174:3609)">
<path d="M10.2339 3.66903L7.10742 7.55665L11.9683 15.4995L10.2339 3.66903Z" fill="#6EC72E"/>
<path d="M19.0933 7.89186L19.0241 7.80689L15.252 15.51H25.2217L19.0933 7.89186Z" fill="#6EC72E"/>
<path d="M12.95 15.51L15.3893 3.28608L12.9651 0.274912L10.502 3.33613L12.9274 15.51H12.95Z" fill="#6EC72E"/>
<path d="M6.83734 7.89186L0.708984 15.51H10.5705L6.90908 7.80107L6.83734 7.89186Z" fill="#6EC72E"/>
<path d="M14.1667 15.51L18.7771 7.50196L15.6658 3.63295L14.1113 15.51H14.1667Z" fill="#6EC72E"/>
<path d="M34.8004 5.21358H33.9042V9.70763H34.6947C35.6286 9.70763 36.3296 9.67852 36.8016 9.26416C37.2736 8.84863 37.509 8.25151 37.509 7.47166C37.509 6.98745 37.407 6.57774 37.2044 6.24485C37.0018 5.90846 36.6984 5.65356 36.2931 5.4778C35.8891 5.30204 35.392 5.21358 34.8004 5.21358ZM34.5336 10.3234H33.9042V14.0445C33.9042 14.4671 33.9709 14.7813 34.1069 14.9885C34.2415 15.1969 34.4089 15.3307 34.604 15.3878C34.7991 15.446 35.0584 15.4797 35.3857 15.489V15.6915H29.752V15.4751C30.3813 15.4751 30.7853 15.3435 30.964 15.084C31.144 14.8209 31.2334 14.4752 31.2334 14.0434V6.26929C31.2334 5.73736 31.1176 5.36257 30.8835 5.14374C30.6494 4.92492 30.2718 4.8155 29.752 4.8155V4.59901H36.2201C37.0395 4.59901 37.7595 4.71657 38.3775 4.95401C38.998 5.1903 39.47 5.52436 39.796 5.95618C40.1219 6.38918 40.283 6.88502 40.283 7.4414C40.283 7.89418 40.1811 8.29574 39.9734 8.64842C39.767 8.99994 39.4888 9.28977 39.1377 9.51558C38.7878 9.74255 38.3976 9.91598 37.9671 10.0359C38.5272 10.3618 39.0697 10.9379 39.5971 11.7667L41.0294 14.0154C41.2723 14.4007 41.4989 14.7022 41.7053 14.914C41.9117 15.127 42.093 15.2679 42.2503 15.3365C42.4076 15.4029 42.5788 15.4494 42.7626 15.4751V15.6915H39.042C38.6657 15.0642 38.3775 14.5672 38.1761 14.1959C37.5367 13.0366 37.071 12.2323 36.7777 11.7795C36.4845 11.3279 36.1824 11.002 35.8702 10.8018C35.5568 10.6004 35.0156 10.3234 34.5336 10.3234Z" fill="#409629"/>
<path d="M51.4831 7.22259L51.4768 9.07562L51.1748 9.057C51.0841 8.73691 50.9973 8.52856 50.8853 8.32137C50.7745 8.11303 50.6184 7.95356 50.4133 7.84415C50.2106 7.73241 49.9312 7.6777 49.5788 7.6777H47.424L47.4416 11.1579L49.0867 11.1568C49.5662 11.1568 49.9161 11.066 50.1351 10.8844C50.3554 10.7028 50.7116 10.541 50.7481 10.1848L51.0288 10.1872L51.0439 12.7293H50.7103C50.6436 12.351 50.2308 11.953 49.969 11.8249C49.7072 11.6969 49.3938 11.634 49.0325 11.634H47.4416L47.424 14.1971C47.4366 15.1911 48.0055 15.3366 48.8651 15.3366H49.4756C49.8884 15.3366 50.2119 15.2155 50.4712 15.1236C50.733 15.0305 50.9469 14.871 51.1169 14.644C51.2868 14.4182 51.3069 14.0981 51.4441 13.6838H51.716L51.7097 15.7382L44.0898 15.737V15.5694C44.616 15.5694 44.9558 15.4681 45.1081 15.2656C45.2616 15.063 45.3397 14.7965 45.3397 14.4694V8.48899C45.3397 8.17705 45.2692 7.91166 45.1282 7.69517C44.9885 7.47984 44.6663 7.37159 44.1578 7.37159H44.0898V7.20398L51.4831 7.2226L51.4831 7.22259Z" fill="#409629"/>
<path d="M62.3507 9.87177H62.167C61.9203 9.27116 61.306 8.33767 60.7321 7.96287C60.1556 7.58808 59.4835 7.39952 58.7183 7.39952C58.1229 7.39952 57.6295 7.51824 57.2343 7.75336C56.8391 7.98848 56.5345 8.30275 56.3155 8.69384C56.0965 9.08493 55.9442 9.50861 55.8586 9.96372C55.7743 10.42 55.7315 10.9019 55.7315 11.4082C55.7315 12.6653 56.0021 13.6314 56.5433 14.3041C57.0845 14.9792 57.8133 15.3144 58.7283 15.3144C59.3866 15.3144 59.7982 15.2248 59.9618 15.0444C60.1292 14.864 60.2123 14.5963 60.2123 14.2424V13.2414C60.2123 13.0401 60.1959 12.8631 60.1607 12.7107C60.1279 12.5582 60.06 12.5431 59.919 12.415C59.7755 12.287 59.2796 12.216 58.9901 12.1997V12.0158H63.4583V12.1997C62.8844 12.2707 62.3004 12.4686 62.3004 13.0471V15.162C61.2985 15.5857 60.1657 15.7975 58.9008 15.7975C58.391 15.7975 57.9304 15.7637 57.5163 15.7009C57.1022 15.6357 56.7346 15.5449 56.4112 15.4297C56.089 15.3133 55.8171 15.1887 55.5968 15.0526C55.3766 14.9175 55.1664 14.7651 54.9738 14.5963C54.7044 14.36 54.464 14.0876 54.2526 13.7827C54.0424 13.4777 53.87 13.1192 53.7365 12.713C53.6019 12.3056 53.5352 11.8598 53.5352 11.3721C53.5352 10.7156 53.661 10.1162 53.9153 9.57496C54.167 9.03255 54.5245 8.56231 54.9876 8.16307C55.4508 7.76384 55.9807 7.46121 56.576 7.25286C57.1726 7.04335 57.8045 6.93976 58.4665 6.93976C58.8391 6.93976 59.1915 6.99795 59.4621 7.05498C59.7139 7.10736 60.1607 7.34016 60.8089 7.52057C61.014 7.5776 61.2318 7.61368 61.4697 7.61368C61.7201 7.61368 62.0851 7.31106 62.167 7.00959H62.3507V9.87177Z" fill="#409629"/>
<path d="M65.2539 7.17603V7.01308H69.8253V7.18767C69.3181 7.18767 68.9896 7.29359 68.8436 7.50776C68.6951 7.72309 68.6208 7.74753 68.6208 8.09789V14.417C68.6208 14.6184 68.6422 14.7965 68.6812 14.9559C68.7202 15.1142 68.826 15.2586 68.9946 15.3866C69.1633 15.5146 69.4238 15.5775 69.7712 15.5775H69.8253V15.7521H65.2539V15.5775C65.7561 15.5775 66.0821 15.4727 66.2331 15.2609C66.3817 15.0491 66.4559 14.7674 66.4559 14.417V8.09789C66.4559 7.68235 66.359 7.63812 66.1639 7.45305C65.9663 7.26682 65.663 7.17603 65.2539 7.17603Z" fill="#409629"/>
<path d="M74.339 11.0916C74.339 11.6945 74.3869 12.2882 74.4863 12.8736C74.5857 13.4591 74.8438 14.0062 75.2591 14.5148C75.6732 15.0235 76.2988 15.2784 77.1332 15.2784C78.3038 15.2784 79.0539 14.8489 79.3824 13.9899C79.7109 13.1309 79.8771 12.2556 79.8771 11.3628C79.8771 10.6679 79.8091 10.0161 79.677 9.40737C79.5448 8.80094 79.2742 8.28181 78.8651 7.84766C78.4573 7.41583 77.8809 7.19933 77.1332 7.19933C76.295 7.19933 75.6682 7.44609 75.2553 7.93961C74.8425 8.4308 74.5857 8.95458 74.4863 9.51096C74.3869 10.065 74.339 10.5923 74.339 11.0916ZM72.0332 11.2057C72.0332 10.6028 72.1465 10.0254 72.3756 9.47487C72.6021 8.92316 72.9357 8.44011 73.3762 8.02342C73.8167 7.60788 74.3491 7.28314 74.9772 7.05384C75.604 6.82221 76.3151 6.70581 77.1081 6.70581C77.9086 6.70581 78.6235 6.82338 79.2503 7.05733C79.8771 7.29362 80.4108 7.62069 80.8488 8.03855C81.2868 8.45758 81.6191 8.94062 81.8418 9.49001C82.0671 10.0371 82.1804 10.6225 82.1804 11.2429C82.1804 11.8563 82.0696 12.4372 81.8532 12.9796C81.6342 13.522 81.3132 14.0027 80.8916 14.4217C80.4687 14.8396 79.9362 15.169 79.2956 15.4099C78.6562 15.6509 77.9312 15.7719 77.1207 15.7719C76.2484 15.7719 75.4869 15.6357 74.8387 15.3645C74.1893 15.0933 73.6569 14.7348 73.2465 14.2878C72.835 13.8421 72.5291 13.3497 72.3315 12.8108C72.1326 12.2707 72.0332 11.7364 72.0332 11.2057Z" fill="#409629"/>
<path d="M86.8013 7.00143L92.4388 12.4499V8.49363C92.4388 7.97334 92.2513 7.62415 92.0235 7.43326C91.7957 7.24354 91.6169 7.21793 91.1487 7.15507V6.98513H94.2551V7.15507C93.8976 7.19232 93.7415 7.17718 93.4961 7.32268C93.301 7.43908 93.2129 7.52638 93.0744 7.74171C92.9662 7.91164 92.9435 8.22009 92.9435 8.47733V15.6927H92.7245L85.7919 8.78694V13.8118C85.7919 14.2191 85.8133 14.6766 86.0008 14.9641C86.1896 15.2504 86.7913 15.3028 87.2972 15.34V15.51H83.9744V15.34C84.9083 15.2679 85.1021 14.8442 85.0946 14.0643V8.23057C84.7057 7.74171 84.5723 7.21211 83.9618 7.18301L83.9492 7.00143H86.8013H86.8013Z" fill="#409629"/>
<path d="M101.653 9.03836H101.395C101.219 8.49131 100.94 8.06064 100.556 7.74637C100.171 7.42978 99.4131 7.2738 98.8656 7.2738C98.5975 7.2738 98.3508 7.32153 98.128 7.41813C97.9052 7.51591 97.729 7.65442 97.5981 7.83483C97.4672 8.01524 97.403 8.22127 97.403 8.45638C97.403 8.5914 97.4282 8.7241 97.4785 8.85446C97.5289 8.98483 97.651 9.14428 97.8448 9.33517C98.0386 9.52373 98.3344 9.73441 98.7309 9.96488C99.1739 10.2151 99.4433 10.3723 99.5415 10.4398C100.098 10.754 100.716 11.0613 101.168 11.3919C101.57 11.6875 101.728 11.8749 101.913 12.1892C102.099 12.5023 102.192 12.8573 102.192 13.2531C102.192 13.6185 102.113 13.9503 101.956 14.2494C101.798 14.5497 101.666 14.8093 101.377 15.0293C101.087 15.2493 100.742 15.4192 100.344 15.5414C99.9442 15.6625 99.5112 15.7218 99.0418 15.7218C98.561 15.7218 98.0034 15.6392 97.3728 15.4751C97.3023 15.4588 97.213 15.4401 97.1035 15.4215C96.9965 15.4006 96.9008 15.3901 96.8152 15.3901C96.6101 15.3901 96.459 15.4914 96.3659 15.6892H96.1343L96.1393 13.068H96.3092C96.3923 13.5371 96.6189 14.2238 96.9134 14.5218C97.2343 14.8477 97.5704 14.9804 97.9203 15.1212C98.2702 15.2609 98.6176 15.3133 98.9524 15.3133C99.4433 15.3133 99.8511 15.1457 100.172 14.9012C100.493 14.6556 100.652 14.3553 100.652 14.0038C100.652 13.7664 100.586 13.5603 100.45 13.3846C100.317 13.2065 100.115 13.0331 99.8473 12.8608C99.5792 12.6885 99.072 12.3882 98.3294 11.9611C97.9354 11.7318 97.6006 11.5083 97.3262 11.2941C97.0493 11.0811 96.8328 10.8751 96.6793 10.6807C96.5245 10.484 96.4351 10.3839 96.3017 10.1185C96.2073 9.93462 96.1582 9.72045 96.133 9.49929C96.0777 9.0209 96.1897 8.5495 96.4351 8.1328C96.6806 7.71844 97.0279 7.37856 97.4785 7.11434C97.9304 6.85128 98.6315 6.78727 99.2104 6.78727C99.4798 6.78727 99.7378 6.81286 99.9845 6.86642C100.052 6.87339 100.138 6.88969 100.25 6.91414C100.361 6.93741 100.453 6.95604 100.527 6.97117C100.722 7.0026 100.868 7.01889 100.966 7.01889C101.116 7.01889 101.22 6.99679 101.28 6.95255C101.341 6.90948 101.395 6.84663 101.45 6.76283H101.653V9.03836Z" fill="#409629"/>
</g>
<defs>
<clipPath id="clip0_174:3609">
<rect width="102" height="16" fill="white" transform="translate(0.25 0.0100098)"/>
</clipPath>
</defs>
</svg>
