<svg width="57" height="33" viewBox="0 0 57 33" fill="none" xmlns="http://www.w3.org/2000/svg">
<g clip-path="url(#clip0_174:3585)">
<path d="M43.4713 28.8953C43.4713 29.9492 43.3421 31.6985 40.8479 31.6985C40.3224 31.6985 39.2046 31.6953 38.5358 31.0244C38.1104 30.5999 37.9133 29.9183 37.9133 28.8921V25.1908C37.9133 24.8452 37.6936 24.7492 37.1562 24.7492V24.2767H40.4462V24.7492C39.9121 24.7492 39.6935 24.8452 39.6935 25.1908V29.1321C39.6935 30.0249 39.7624 31.0297 41.1193 31.0671C42.6399 31.1161 42.7573 29.8713 42.7573 29.0137V25.2143C42.7573 24.8687 42.6981 24.7471 42.1607 24.7471H41.9733V24.2767H44.2413V24.7492H44.0593C43.5349 24.7492 43.4702 24.8698 43.4702 25.2164V28.8953H43.4713Z" fill="#00447C"/>
<path d="M55.0407 31.5002H51.391V31.0372H51.629C52.1847 31.0372 52.3247 30.8132 52.3247 30.4708V24.9039H51.6107C51.2316 24.9039 51.0841 24.9882 50.9603 25.1684C50.8235 25.3626 50.8235 25.8618 50.8149 26.2074H50.1816V24.2767H56.2598V26.2084H55.6233C55.6147 25.8639 55.6147 25.3636 55.4758 25.1695C55.353 24.9892 55.2023 24.905 54.8286 24.905H54.106V30.4719C54.106 30.8143 54.246 31.0383 54.8006 31.0383H55.0418V31.5002H55.0407Z" fill="#00447C"/>
<path d="M50.0507 29.4852C49.9441 30.6714 49.0071 31.6986 47.1117 31.6986C46.0671 31.6986 44.9611 31.3668 44.5368 31.066V29.2815H45.1916C45.2002 29.4852 45.2002 29.6644 45.2411 29.9119C45.2777 30.1039 45.3327 30.2767 45.4705 30.4356C45.7279 30.7386 46.2168 31.0735 47.1236 31.0884C48.2737 31.1087 48.8025 30.4804 48.7939 29.9044C48.7799 29.0788 48.3373 28.9402 46.7424 28.5807C45.1539 28.2138 44.5121 27.6218 44.5196 26.3354C44.5261 25.1343 45.4264 24.0442 47.3444 24.0623C48.487 24.0751 49.0858 24.2639 49.6199 24.5156V26.2084H48.9759C48.9684 26.0378 48.9565 25.8202 48.9339 25.6068C48.9199 25.4063 48.8574 25.2186 48.6873 25.0778C48.1951 24.6724 47.5511 24.6522 47.1107 24.6703C46.5151 24.6927 45.7279 25.0063 45.7279 25.6804C45.7225 26.3311 45.9896 26.554 47.3594 26.8324C48.5968 27.0799 49.1094 27.2452 49.5251 27.6644C49.9613 28.1167 50.1217 28.7471 50.0507 29.4852" fill="#00447C"/>
<path d="M8.42785 28.9711C8.27278 30.3972 7.15493 31.6953 4.65647 31.6953C3.2877 31.6953 1.87047 31.2687 1.31585 30.8601V28.4633H2.07832C2.09232 28.7364 2.10093 28.9721 2.14401 29.2324C2.18385 29.4767 2.26785 29.7401 2.42724 29.9513C2.86662 30.4985 3.52678 30.8953 4.65001 30.9113C6.32139 30.9316 6.87493 29.9748 6.86632 29.1631C6.85339 28.1529 6.14801 27.8756 4.25262 27.4073C2.43909 26.9593 1.24801 26.2916 1.23832 24.5369C1.23078 22.8697 2.44124 21.5481 4.90416 21.5481C6.38278 21.5481 7.17324 21.8393 7.82908 22.1529V24.2756H7.11508C7.10432 24.058 7.09462 23.7572 7.04078 23.5076C6.97939 23.2057 6.81032 22.9423 6.62508 22.8153C6.01124 22.3972 5.43401 22.2948 4.69416 22.3268C3.65924 22.3663 2.82032 22.8772 2.80632 23.7348C2.79016 24.5945 3.12724 24.9935 4.94509 25.386C6.46355 25.7188 7.27447 26.0196 7.76985 26.5028C8.43324 27.1684 8.53555 27.9844 8.42785 28.9711Z" fill="#00447C"/>
<path d="M16.111 24.7492C16.6473 24.7492 16.6882 24.8452 16.6882 25.1908V30.5657C16.6882 30.9049 16.6258 31.0372 16.0884 31.0372H15.8978V31.5001H18.183V31.0372H17.9945C17.4593 31.0372 17.3947 30.9049 17.3947 30.5657V26.0431L20.4693 31.5001H22.1967V25.2377C22.1967 24.8943 22.2645 24.7492 22.8041 24.7492H23.3189V23.9471C23.3189 23.2601 23.3759 22.4569 24.3979 22.4569H25.5427V30.1945C25.5427 30.8452 25.3887 31.0383 24.6359 31.0383H24.3818V31.5012H28.7476V31.0383H28.5021C27.7429 31.0383 27.5706 30.8452 27.5706 30.1945V22.4569H28.7078C29.7147 22.4569 29.7739 23.2612 29.7739 23.9471V24.7492H30.4826C31.0286 24.7492 31.0695 24.8697 31.0695 25.2164V30.5753C31.0695 30.9188 30.8379 31.0383 30.2844 31.0383V31.5012H33.6584V31.0383C33.1102 31.0383 32.8722 30.9199 32.8722 30.5753V24.8399H33.7672C34.4682 24.8399 34.9884 25.0927 34.9884 26.1551C34.9884 26.8228 34.7159 27.5823 33.7446 27.5823H33.2115C33.2115 27.5823 34.5458 30.2564 34.7892 30.7492C35.1015 31.3679 35.4946 31.5001 36.2635 31.5001H37.5859V31.0372C37.3996 31.0372 37.0346 31.0116 36.8299 30.6895L35.2522 27.9652C36.1375 27.7817 36.775 27.1065 36.775 26.1423C36.775 24.3695 34.983 24.2756 33.8156 24.2756H30.4922V21.7252H22.5962V24.2756H20.6987V24.7481H20.8915C21.4267 24.7481 21.487 24.8889 21.487 25.2367V29.7049L18.4339 24.2745H13.6287V24.7471H13.8172C14.3567 24.7471 14.4192 24.8431 14.4192 25.1887V29.0127C14.4192 29.8703 14.2985 31.1151 12.7779 31.066C11.421 31.0287 11.3499 30.0228 11.3499 29.1311V25.1897C11.3499 24.8441 11.5685 24.7481 12.1059 24.7481V24.2767H8.81055V24.7492C9.34685 24.7492 9.56332 24.8452 9.56332 25.1908V28.8921C9.56332 29.9183 9.76685 30.5999 10.1729 31.0244C10.8567 31.6953 11.981 31.6985 12.5012 31.6985C14.9802 31.6985 15.1105 29.9492 15.1105 28.4516V24.7396C15.1105 24.8463 15.1525 24.7503 15.6867 24.7503H16.111V24.7492Z" fill="#00447C"/>
<path d="M8.09203 12.2564L7.9348 12.6884C7.80018 13.05 7.78188 13.6964 7.88203 14.0409L8.68865 18.1711C8.75218 18.5295 8.86634 18.6788 8.98695 18.6575C9.11834 18.6244 9.10434 18.3524 9.02788 17.7295L8.41941 12.2553C8.37634 11.9108 8.22341 11.9044 8.09203 12.2564" fill="url(#paint0_linear_174:3585)"/>
<path d="M9.80236 16.5956C9.81744 16.9519 9.85621 17.3785 9.73344 17.4095C9.61928 17.4329 9.54928 17.2943 9.49005 16.8345L9.22836 14.3961C9.18205 14.0463 9.24236 13.306 9.37375 13.0468C9.50728 12.7876 9.63005 12.8537 9.64405 13.2015L9.80236 16.5956Z" fill="url(#paint1_linear_174:3585)"/>
<path d="M10.8982 8.38974L10.5837 15.4948C10.5783 15.818 10.5568 16.2297 10.4351 16.202C10.3672 16.186 10.2854 15.9983 10.2789 15.674L10.1411 9.84148C10.1325 9.55134 10.2445 9.07241 10.4017 8.78228L10.6182 8.37908C10.7754 8.09641 10.9229 8.10068 10.8982 8.38974Z" fill="url(#paint2_linear_174:3585)"/>
<path d="M11.9749 9.84255L11.4871 15.2612C11.4375 15.6442 11.3804 16.0378 11.2663 16.0324C11.1888 16.0303 11.1209 15.7914 11.1597 15.433L11.3621 10.7812C11.3966 10.4452 11.6249 9.94069 11.7703 9.68255C11.9178 9.43082 12.0288 9.54602 11.9749 9.84255" fill="url(#paint3_linear_174:3585)"/>
<path d="M12.16 14.8772C12.0663 14.8654 12.062 14.4814 12.0878 14.2201L12.8546 6.72038C12.8966 6.44305 13.1001 6.01638 13.3026 5.76998L13.3758 5.68038C13.5858 5.42972 13.7398 5.45318 13.6828 5.72305L12.3904 14.2286C12.3237 14.5956 12.2752 14.8772 12.16 14.8772" fill="url(#paint4_linear_174:3585)"/>
<path d="M14.4457 6.96467C14.6147 6.7748 14.8947 6.88253 14.8344 7.15133L13.1577 14.7279C13.0974 14.9988 12.9778 15.4169 12.8529 15.4031C12.7495 15.3956 12.7571 14.9977 12.8314 14.6756L14.0375 7.8244C14.0967 7.54813 14.2734 7.15027 14.4457 6.96467" fill="url(#paint5_linear_174:3585)"/>
<path d="M14.6164 14.6404C14.4947 14.9017 14.345 15.2772 14.1749 15.2057C14.0521 15.1577 14.2987 14.5657 14.2987 14.5657L18.4567 4.52094C18.5903 4.22867 18.8875 3.85427 19.2117 4.01107C19.5014 4.14974 19.1901 4.71507 19.076 4.97C16.5549 10.5839 15.8366 12.0335 14.6164 14.6404" fill="url(#paint6_linear_174:3585)"/>
<path d="M15.5507 14.1455C15.6497 14.2202 15.8834 13.945 16.0654 13.6324L23.6771 1.07456C23.8117 0.84843 23.8893 0.484697 23.6157 0.34923C23.4025 0.24363 23.0342 0.449497 22.8597 0.75563L15.7854 13.4052C15.5776 13.786 15.4548 14.0698 15.5507 14.1455" fill="url(#paint7_linear_174:3585)"/>
<path d="M15.7264 15.4991C15.6273 15.402 15.7964 15.0916 15.9999 14.7791L24.1286 3.09376C24.3483 2.76309 24.8329 2.39723 25.1301 2.56789C25.3993 2.72256 25.4036 3.05536 25.1764 3.36789L16.3036 15.001C16.0839 15.3146 15.8298 15.6026 15.7264 15.4991" fill="url(#paint8_linear_174:3585)"/>
<path d="M18.1308 14.1444C18.1308 14.1444 17.5934 14.7012 17.4814 14.5764C17.3651 14.4559 17.5837 14.2223 17.8206 13.9225L18.0866 13.6047L29.446 0.70012C29.6291 0.478253 29.879 0.467587 30.1191 0.643587L30.4626 1.06279C30.65 1.27399 30.6371 1.63985 30.4303 1.84465L18.1308 14.1444Z" fill="url(#paint9_linear_174:3585)"/>
<path d="M17.2104 16.2138C17.1221 16.1263 17.3192 15.866 17.68 15.5514L29.7404 4.57429C29.9569 4.35349 30.2595 4.36096 30.4544 4.54656C30.7075 4.78549 30.7936 5.00736 30.8346 5.21856C30.9024 5.56523 30.7075 5.71883 30.4598 5.93856L17.8986 15.8447C17.5884 16.1156 17.3127 16.3076 17.2104 16.2138" fill="url(#paint10_linear_174:3585)"/>
<path d="M19.7112 15.2313L33.7435 5.29854C34.0117 5.08947 34.2561 5.13747 34.324 5.39987L34.6492 6.51241C34.7235 6.78761 34.5275 7.1556 34.241 7.35507L19.9524 15.5556C19.6014 15.7775 19.2363 15.9727 19.1458 15.85C19.0349 15.6975 19.3881 15.4916 19.7112 15.2313Z" fill="url(#paint11_linear_174:3585)"/>
<path d="M18.2162 17.3167C18.1742 17.1545 18.5446 17.0031 18.9366 16.8036L31.4935 10.5327C31.8338 10.3481 32.102 10.442 32.0998 10.7332L32.1569 12.1145C32.1515 12.4164 31.8306 12.7876 31.4408 12.9423L19.0637 17.2079C18.6297 17.3743 18.2528 17.4713 18.2162 17.3167Z" fill="url(#paint12_linear_174:3585)"/>
<path d="M32.9318 16.1273L20.8067 17.8457C20.3318 17.9183 19.9828 17.994 19.9462 17.8564C19.9053 17.69 20.3102 17.5887 20.7539 17.4404L33.3334 13.6569C33.7384 13.5236 34.0561 13.6697 34.0184 13.9801L33.8396 15.4063C33.8008 15.7348 33.397 16.0612 32.9318 16.1273" fill="url(#paint13_linear_174:3585)"/>
<path d="M19.1361 19.0116C19.1027 18.8345 19.7058 18.7343 20.1721 18.6863L30.8961 17.4404C31.3753 17.3924 31.7684 17.6452 31.6123 18.0569L31.3947 18.6169C31.2666 18.9753 30.8724 19.2249 30.3749 19.1919L20.0956 19.1961C19.6455 19.2025 19.1706 19.1887 19.1361 19.0116" fill="url(#paint14_linear_174:3585)"/>
<path d="M17.6524 3.26015C17.6524 3.26015 14.5465 12.7119 14.3677 13.2207C14.1771 13.7657 13.9919 14.2511 13.8293 14.2095C13.7248 14.1785 13.8067 13.8319 13.923 13.4137L16.863 3.15881C17.003 2.74495 17.4402 2.38761 17.6114 2.42175C17.9205 2.48041 17.7428 2.99881 17.6524 3.26015" fill="url(#paint15_linear_174:3585)"/>
</g>
<defs>
<linearGradient id="paint0_linear_174:3585" x1="7.59341" y1="16.5475" x2="21.4569" y2="-0.133248" gradientUnits="userSpaceOnUse">
<stop offset="0.3427" stop-color="#FDB913"/>
<stop offset="0.3656" stop-color="#FBB415"/>
<stop offset="0.5519" stop-color="#EF941B"/>
<stop offset="0.7247" stop-color="#E8801D"/>
<stop offset="0.8776" stop-color="#E4741E"/>
<stop offset="0.9944" stop-color="#E36F1E"/>
</linearGradient>
<linearGradient id="paint1_linear_174:3585" x1="8.06367" y1="16.9829" x2="21.876" y2="0.363787" gradientUnits="userSpaceOnUse">
<stop offset="0.3427" stop-color="#FDB913"/>
<stop offset="0.3656" stop-color="#FBB415"/>
<stop offset="0.5519" stop-color="#EF941B"/>
<stop offset="0.7247" stop-color="#E8801D"/>
<stop offset="0.8776" stop-color="#E4741E"/>
<stop offset="0.9944" stop-color="#E36F1E"/>
</linearGradient>
<linearGradient id="paint2_linear_174:3585" x1="7.16458" y1="16.2673" x2="20.9265" y2="-0.291218" gradientUnits="userSpaceOnUse">
<stop offset="0.3427" stop-color="#FDB913"/>
<stop offset="0.3656" stop-color="#FBB415"/>
<stop offset="0.5519" stop-color="#EF941B"/>
<stop offset="0.7247" stop-color="#E8801D"/>
<stop offset="0.8776" stop-color="#E4741E"/>
<stop offset="0.9944" stop-color="#E36F1E"/>
</linearGradient>
<linearGradient id="paint3_linear_174:3585" x1="8.0141" y1="17.0048" x2="21.7423" y2="0.486827" gradientUnits="userSpaceOnUse">
<stop offset="0.3427" stop-color="#FDB913"/>
<stop offset="0.3656" stop-color="#FBB415"/>
<stop offset="0.5519" stop-color="#EF941B"/>
<stop offset="0.7247" stop-color="#E8801D"/>
<stop offset="0.8776" stop-color="#E4741E"/>
<stop offset="0.9944" stop-color="#E36F1E"/>
</linearGradient>
<linearGradient id="paint4_linear_174:3585" x1="7.45867" y1="16.5673" x2="21.1567" y2="0.0855763" gradientUnits="userSpaceOnUse">
<stop offset="0.3427" stop-color="#FDB913"/>
<stop offset="0.3656" stop-color="#FBB415"/>
<stop offset="0.5519" stop-color="#EF941B"/>
<stop offset="0.7247" stop-color="#E8801D"/>
<stop offset="0.8776" stop-color="#E4741E"/>
<stop offset="0.9944" stop-color="#E36F1E"/>
</linearGradient>
<linearGradient id="paint5_linear_174:3585" x1="8.41716" y1="17.385" x2="22.0803" y2="0.94534" gradientUnits="userSpaceOnUse">
<stop offset="0.3427" stop-color="#FDB913"/>
<stop offset="0.3656" stop-color="#FBB415"/>
<stop offset="0.5519" stop-color="#EF941B"/>
<stop offset="0.7247" stop-color="#E8801D"/>
<stop offset="0.8776" stop-color="#E4741E"/>
<stop offset="0.9944" stop-color="#E36F1E"/>
</linearGradient>
<linearGradient id="paint6_linear_174:3585" x1="9.32432" y1="18.1444" x2="22.8907" y2="1.82114" gradientUnits="userSpaceOnUse">
<stop offset="0.3427" stop-color="#FDB913"/>
<stop offset="0.3656" stop-color="#FBB415"/>
<stop offset="0.5519" stop-color="#EF941B"/>
<stop offset="0.7247" stop-color="#E8801D"/>
<stop offset="0.8776" stop-color="#E4741E"/>
<stop offset="0.9944" stop-color="#E36F1E"/>
</linearGradient>
<linearGradient id="paint7_linear_174:3585" x1="9.83856" y1="18.5757" x2="23.3599" y2="2.30671" gradientUnits="userSpaceOnUse">
<stop offset="0.3427" stop-color="#FDB913"/>
<stop offset="0.3656" stop-color="#FBB415"/>
<stop offset="0.5519" stop-color="#EF941B"/>
<stop offset="0.7247" stop-color="#E8801D"/>
<stop offset="0.8776" stop-color="#E4741E"/>
<stop offset="0.9944" stop-color="#E36F1E"/>
</linearGradient>
<linearGradient id="paint8_linear_174:3585" x1="11.1902" y1="19.7079" x2="24.6706" y2="3.48821" gradientUnits="userSpaceOnUse">
<stop offset="0.3427" stop-color="#FDB913"/>
<stop offset="0.3656" stop-color="#FBB415"/>
<stop offset="0.5519" stop-color="#EF941B"/>
<stop offset="0.7247" stop-color="#E8801D"/>
<stop offset="0.8776" stop-color="#E4741E"/>
<stop offset="0.9944" stop-color="#E36F1E"/>
</linearGradient>
<linearGradient id="paint9_linear_174:3585" x1="12.9015" y1="21.1329" x2="26.3402" y2="4.96323" gradientUnits="userSpaceOnUse">
<stop offset="0.3427" stop-color="#FDB913"/>
<stop offset="0.3656" stop-color="#FBB415"/>
<stop offset="0.5519" stop-color="#EF941B"/>
<stop offset="0.7247" stop-color="#E8801D"/>
<stop offset="0.8776" stop-color="#E4741E"/>
<stop offset="0.9944" stop-color="#E36F1E"/>
</linearGradient>
<linearGradient id="paint10_linear_174:3585" x1="14.2858" y1="22.2892" x2="27.68" y2="6.17319" gradientUnits="userSpaceOnUse">
<stop offset="0.3427" stop-color="#FDB913"/>
<stop offset="0.3656" stop-color="#FBB415"/>
<stop offset="0.5519" stop-color="#EF941B"/>
<stop offset="0.7247" stop-color="#E8801D"/>
<stop offset="0.8776" stop-color="#E4741E"/>
<stop offset="0.9944" stop-color="#E36F1E"/>
</linearGradient>
<linearGradient id="paint11_linear_174:3585" x1="16.2311" y1="23.9101" x2="29.5802" y2="7.84826" gradientUnits="userSpaceOnUse">
<stop offset="0.3427" stop-color="#FDB913"/>
<stop offset="0.3656" stop-color="#FBB415"/>
<stop offset="0.5519" stop-color="#EF941B"/>
<stop offset="0.7247" stop-color="#E8801D"/>
<stop offset="0.8776" stop-color="#E4741E"/>
<stop offset="0.9944" stop-color="#E36F1E"/>
</linearGradient>
<linearGradient id="paint12_linear_174:3585" x1="16.9576" y1="24.4996" x2="30.2381" y2="8.52025" gradientUnits="userSpaceOnUse">
<stop offset="0.3427" stop-color="#FDB913"/>
<stop offset="0.3656" stop-color="#FBB415"/>
<stop offset="0.5519" stop-color="#EF941B"/>
<stop offset="0.7247" stop-color="#E8801D"/>
<stop offset="0.8776" stop-color="#E4741E"/>
<stop offset="0.9944" stop-color="#E36F1E"/>
</linearGradient>
<linearGradient id="paint13_linear_174:3585" x1="18.8994" y1="26.1069" x2="32.094" y2="10.2311" gradientUnits="userSpaceOnUse">
<stop offset="0.3427" stop-color="#FDB913"/>
<stop offset="0.3656" stop-color="#FBB415"/>
<stop offset="0.5519" stop-color="#EF941B"/>
<stop offset="0.7247" stop-color="#E8801D"/>
<stop offset="0.8776" stop-color="#E4741E"/>
<stop offset="0.9944" stop-color="#E36F1E"/>
</linearGradient>
<linearGradient id="paint14_linear_174:3585" x1="19.0281" y1="26.1954" x2="32.1141" y2="10.4501" gradientUnits="userSpaceOnUse">
<stop offset="0.3427" stop-color="#FDB913"/>
<stop offset="0.3656" stop-color="#FBB415"/>
<stop offset="0.5519" stop-color="#EF941B"/>
<stop offset="0.7247" stop-color="#E8801D"/>
<stop offset="0.8776" stop-color="#E4741E"/>
<stop offset="0.9944" stop-color="#E36F1E"/>
</linearGradient>
<linearGradient id="paint15_linear_174:3585" x1="8.14657" y1="17.1641" x2="21.7625" y2="0.781206" gradientUnits="userSpaceOnUse">
<stop offset="0.3427" stop-color="#FDB913"/>
<stop offset="0.3656" stop-color="#FBB415"/>
<stop offset="0.5519" stop-color="#EF941B"/>
<stop offset="0.7247" stop-color="#E8801D"/>
<stop offset="0.8776" stop-color="#E4741E"/>
<stop offset="0.9944" stop-color="#E36F1E"/>
</linearGradient>
<clipPath id="clip0_174:3585">
<rect width="56" height="32" fill="white" transform="translate(0.75 0.0100098)"/>
</clipPath>
</defs>
</svg>
