<svg width="77" height="25" viewBox="0 0 77 25" fill="none" xmlns="http://www.w3.org/2000/svg">
<g clip-path="url(#clip0_174:3577)">
<path d="M27.3841 0.352201H0.589844V23.7014H27.3841V0.352201Z" fill="white"/>
<path d="M38.9132 11.1168H39.9812C40.724 11.1168 41.4649 11.286 41.4649 12.2122C41.4649 13.0444 40.6785 13.3233 39.9519 13.3233H38.9132V11.1168ZM35.1738 15.5473H41.1826C43.3342 15.5473 45.441 15.2677 45.441 12.5514C45.441 11.4722 44.5512 10.3008 43.1118 10.0998V10.068C44.4907 9.69831 45.2478 8.90963 45.2478 7.43019C45.2478 5.37742 43.4832 4.77747 41.6886 4.77747H35.1738V15.5473ZM38.9132 6.81469H39.9943C40.7065 6.81469 41.3602 7.0605 41.3602 7.8641C41.3602 8.67938 40.6031 8.89535 39.9058 8.89535H38.9126V6.81469H38.9132Z" fill="#003F2D"/>
<path d="M51.4793 12.2577C51.4793 12.9523 51.0917 13.6936 50.3215 13.6936C49.7414 13.6936 49.446 13.4764 49.446 12.9218C49.446 12.0903 50.3365 12.0118 51.1073 12.0118H51.4799V12.2577H51.4793ZM46.923 10.0362C47.6658 9.65164 48.6135 9.35848 49.5046 9.35848C50.4412 9.35848 51.4643 9.48171 51.4793 10.5162C51.1378 10.4838 50.5446 10.4072 50.0237 10.4072C48.168 10.4072 46.0332 10.9021 46.0332 13.37C46.0332 15.0524 47.429 15.7322 48.8659 15.7322C49.9209 15.7322 50.8724 15.2995 51.3896 14.3883H51.4201V15.548H54.8903V10.6557C54.8903 7.72338 52.2943 7.32191 50.1577 7.32191C48.7052 7.32191 48.0359 7.4607 46.9236 7.78435V10.0362H46.923Z" fill="#003F2D"/>
<path d="M55.9434 7.50806H59.4765V8.89538H59.5064C59.9507 7.76944 60.9738 7.32191 62.0288 7.32191C64.0153 7.32191 64.7418 8.40245 64.7418 9.95907V15.5467H61.0037V10.9164C61.0037 10.4533 61.0037 9.82092 60.352 9.82092C59.6827 9.82092 59.6827 10.4533 59.6827 10.9164V15.5467H55.944V7.50806H55.9434Z" fill="#003F2D"/>
<path d="M69.7433 10.6991H69.7764L71.9118 7.50676H76.1378L73.5276 11.0545L76.2438 15.5473H71.8825L69.7764 11.6428H69.7433V15.5473H66.0059V3.9739H69.7433V10.6991Z" fill="#003F2D"/>
<path d="M0.25 24.0253H27.6674V0.0275402H0.25V24.0253ZM18.2477 18.834H11.8606V7.57127H15.0691V16.8415H18.1536C20.2834 16.8415 21.1788 15.3926 21.1788 11.6775C21.1788 7.93383 20.16 6.8468 18.0003 6.8468H10.9658V18.834H7.78729V6.8468H3.12821V4.85239H18.9867C22.8133 4.85239 24.6334 6.78454 24.6334 11.6477C24.6334 18.0486 21.9178 18.834 18.2477 18.834Z" fill="#54B848"/>
</g>
<defs>
<clipPath id="clip0_174:3577">
<rect width="76" height="24" fill="white" transform="translate(0.25 0.0100098)"/>
</clipPath>
</defs>
</svg>
