<svg width="33" height="33" viewBox="0 0 33 33" fill="none" xmlns="http://www.w3.org/2000/svg">
<g clip-path="url(#clip0_174:3565)">
<path d="M30.9777 23.1563C29.9982 23.1563 29.2048 23.8847 29.2048 24.786C29.2048 25.6834 29.9982 26.4118 30.9777 26.4118C31.9552 26.4118 32.7485 25.6834 32.7485 24.786C32.7485 23.8847 31.9552 23.1563 30.9777 23.1563ZM30.9777 26.1205C30.1745 26.1205 29.5241 25.5222 29.5241 24.786C29.5241 24.0479 30.1745 23.4496 30.9777 23.4496C31.7808 23.4496 32.4292 24.0479 32.4292 24.786C32.4292 25.5222 31.7808 26.1205 30.9777 26.1205ZM0.84375 23.368V28.601C0.84375 31.5244 2.67729 32.01 4.21307 32.01C6.48541 32.01 7.53734 30.5473 7.53734 28.5718V23.3661H6.03486V28.7486C6.03486 29.4285 5.80567 30.6969 4.21307 30.6716C2.76348 30.6464 2.49903 29.3508 2.49903 28.5175V23.368H0.84375ZM13.8196 23.7099C13.8196 23.7099 12.8597 23.2476 11.7686 23.2476C10.4111 23.2476 8.7029 23.9255 8.7029 25.7805C8.7029 27.0664 9.67647 27.6744 10.3386 27.9872C10.6912 28.1542 11.1182 28.3407 11.4708 28.5252C11.653 28.6224 12.3759 28.8593 12.3759 29.6188C12.3759 30.4347 11.4591 30.7105 11.0477 30.7105C9.58245 30.7105 8.5834 30.0617 8.5834 30.0617L8.73816 31.6934C8.73816 31.6934 9.33758 31.9906 11.13 31.9944C12.8401 31.9886 14.0723 30.9183 14.0723 29.446C14.0723 28.3135 13.2789 27.6414 12.5992 27.3209C12.0663 27.0684 11.7568 26.9285 11.2926 26.7149C10.8283 26.5012 10.3484 26.1341 10.3484 25.5649C10.3484 24.955 10.9243 24.516 11.7686 24.516C13.0145 24.516 13.514 25.0638 13.8196 25.2347V23.7099ZM26.053 23.3544H24.2508L24.5368 24.0634L21.7355 31.3379L18.8461 23.3544H17.0439L17.3299 24.0634L14.3446 31.8196H15.9744L16.4954 30.3434H19.5827L20.1018 31.8196H23.1832L23.7062 30.3434H26.7915L27.3125 31.8196H29.1187L26.053 23.3544ZM16.9009 29.1954L18.0998 25.8816L19.1693 29.1954H16.9009ZM24.1097 29.1954L25.3047 25.8816L26.3762 29.1954H24.1097Z" fill="#1A3258"/>
<path d="M31.3286 24.8346C31.3286 24.8346 31.6812 24.7161 31.6812 24.3995C31.6812 24.0809 31.358 23.9022 30.9623 23.9022C30.5666 23.9022 30.3256 23.9916 30.3256 23.9916V25.5494H30.7958V24.9803H30.9368L31.4344 25.5436H32.0318L31.3286 24.8346ZM31.0152 24.7161H30.7958V24.1975C30.7958 24.1975 31.1856 24.1644 31.1856 24.4189C31.1856 24.6792 31.0132 24.7161 31.0132 24.7161H31.0152ZM0.75 13.8461L0.828356 16.4918C0.828356 16.4918 1.49439 16.012 2.24073 16.012C2.98903 16.012 3.83137 16.5364 3.83137 16.5364L10.5171 20.3378L11.0832 17.9486L3.83137 13.8228C3.83137 13.8228 2.98903 13.3042 2.24073 13.3042C1.49047 13.3042 0.751959 13.8481 0.751959 13.8481" fill="#1A3258"/>
<path d="M0.75 10.3885L0.828356 13.0341C0.828356 13.0341 1.49439 12.5544 2.24073 12.5544C2.98904 12.5544 3.83137 13.0769 3.83137 13.0769L11.238 17.2901L11.8022 14.9008L3.82941 10.3652C3.82941 10.3652 2.99099 9.84463 2.24073 9.84463C1.49047 9.84463 0.751959 10.3885 0.751959 10.3885" fill="#1A3258"/>
<path d="M0.75 6.93099L0.828356 9.57661C0.828356 9.57661 1.49439 9.09488 2.24073 9.09488C2.98904 9.09488 3.83137 9.61934 3.83137 9.61934L11.9608 14.2424L12.525 11.8532L3.83137 6.90768C3.83137 6.90768 2.98904 6.38905 2.24073 6.38905C1.49047 6.38905 0.751959 6.93099 0.751959 6.93099" fill="#1A3258"/>
<path d="M14.6837 2.72168L15.4281 5.8432L25.6105 11.6317C25.6105 11.6317 26.4097 12.1523 27.1972 12.1523C27.9847 12.1523 28.688 11.6084 28.688 11.6084L28.6096 8.96278C28.6096 8.96278 27.973 9.44257 27.1972 9.44257C26.4195 9.44257 25.6105 8.92005 25.6105 8.92005L17.7337 4.44075L17.1892 2.43419C17.1892 2.34873 17.2675 2.30988 17.2969 2.30405L18.629 1.89613C18.8092 1.89613 18.913 2.04765 18.913 2.1739L18.9835 2.31765C19.0325 2.3429 19.2323 2.24772 19.246 2.23995V1.44743C19.246 1.31618 19.2197 1.18624 19.1687 1.06515C19.1176 0.944067 19.0428 0.834249 18.9486 0.742078C18.8543 0.649908 18.7426 0.577222 18.6198 0.528245C18.497 0.479267 18.3656 0.454973 18.2333 0.456774H16.9012C16.9012 0.456774 16.7053 0.0100098 16.1392 0.0100098H13.6083C12.9422 0.0100098 12.7797 0.623826 12.7797 0.623826L11.0225 7.54285L3.83136 3.45204C3.83136 3.45204 3.05171 2.92758 2.24072 2.92758C1.42974 2.92758 0.751953 3.47146 0.751953 3.47146L0.828351 6.11903C0.828351 6.11903 1.42778 5.63924 2.23877 5.63924C3.04975 5.63924 3.83136 6.16371 3.83136 6.16371L12.6798 11.1927L14.6837 2.72168Z" fill="#1A3258"/>
<path d="M15.6289 6.69982L16.3733 9.83494L25.6115 15.0873C25.6115 15.0873 26.4382 15.6118 27.1982 15.6118C27.9583 15.6118 28.6889 15.066 28.6889 15.066L28.6125 12.4203C28.6125 12.4203 28.021 12.9001 27.1982 12.9001C26.3755 12.9001 25.6115 12.3796 25.6115 12.3796L15.6289 6.69982Z" fill="#1A3258"/>
<path d="M16.5742 10.6955L17.3186 13.8325L25.6107 18.5449C25.6107 18.5449 26.4373 19.0675 27.1974 19.0675C27.9574 19.0675 28.6881 18.5236 28.6881 18.5236L28.6097 15.8779C28.6097 15.8779 28.0221 16.3577 27.1974 16.3577C26.3746 16.3577 25.6107 15.8371 25.6107 15.8371L16.5742 10.6955Z" fill="#1A3258"/>
<path d="M17.5234 14.695L18.2639 17.8262L25.6098 22.0025C25.6098 22.0025 26.4365 22.527 27.1965 22.527C27.9546 22.527 28.6873 21.9811 28.6873 21.9811L28.6089 19.3375C28.6089 19.3375 28.0212 19.8153 27.1965 19.8153C26.3718 19.8153 25.6098 19.2928 25.6098 19.2928L17.5234 14.695Z" fill="#1A3258"/>
</g>
<defs>
<clipPath id="clip0_174:3565">
<rect width="32" height="32" fill="white" transform="translate(0.75 0.0100098)"/>
</clipPath>
</defs>
</svg>
