<svg width="94" height="25" viewBox="0 0 94 25" fill="none" xmlns="http://www.w3.org/2000/svg">
<g clip-path="url(#clip0_174:3545)">
<path fill-rule="evenodd" clip-rule="evenodd" d="M0.25 0.0110092L0.26581 18.6385L15.5497 24.0059L30.8346 18.6385V0.0110092H0.25Z" fill="#D62A43"/>
<path fill-rule="evenodd" clip-rule="evenodd" d="M26.2675 10.0962C24.6518 9.54168 22.8168 9.44139 22.0096 9.08676C21.741 8.95995 21.4468 8.783 21.4468 8.40545C21.4468 7.54646 22.2296 7.39458 22.9153 7.39458C23.3068 7.39458 23.6982 7.52067 23.9918 7.77356C24.3103 8.00139 24.5297 8.32879 24.5546 8.75864H28.9576C28.8354 5.40007 25.5332 4.61703 22.7932 4.61703C20.2489 4.61703 16.7989 5.47601 16.7989 8.783C16.7989 11.0325 18.2917 12.2433 21.9853 12.9003C24.2361 13.305 24.6518 13.5314 24.6518 14.2894C24.6518 15.0466 23.6489 15.2995 23.0132 15.2995C22.4254 15.2995 21.9611 15.1477 21.7161 14.9205C21.3496 14.5917 21.1532 14.2134 21.1289 13.7585H16.5053C16.5789 17.1429 19.8568 18.3801 22.8418 18.3801C25.924 18.3801 29.3004 17.3958 29.3004 13.7585C29.3004 11.6114 27.8811 10.6271 26.2675 10.0962ZM10.6817 11.865C10.6817 13.9606 9.58164 14.3897 8.7495 14.3897C7.33021 14.3897 7.15878 13.3294 7.15878 11.8134V4.94586H2.31445V13.9348C2.31445 16.9416 4.39446 18.3801 6.6688 18.3801C8.60167 18.3801 9.89812 17.6988 10.8038 16.3842H10.8524V18.0513H15.5253V4.94586H10.6817V11.865Z" fill="white"/>
<path fill-rule="evenodd" clip-rule="evenodd" d="M92.2592 16.9049C92.2148 16.9228 92.1474 16.9322 92.0579 16.9322H91.8671V16.4822H92.0475C92.1641 16.4822 92.2502 16.4973 92.3036 16.5281C92.3563 16.5589 92.3834 16.6198 92.3834 16.7108C92.3834 16.8061 92.3418 16.8705 92.2592 16.9049ZM92.575 17.4945C92.5729 17.4623 92.5715 17.4315 92.5715 17.4021V17.3111C92.5715 17.2488 92.5493 17.1843 92.5056 17.1184C92.4618 17.0532 92.3924 17.0124 92.298 16.9974C92.373 16.9845 92.432 16.9644 92.4736 16.9365C92.5521 16.8849 92.5909 16.8025 92.5909 16.6922C92.5909 16.5353 92.5285 16.4299 92.4042 16.3769C92.3355 16.3476 92.2259 16.3325 92.076 16.3325H91.6547V17.5755H91.8671V17.0848H92.0343C92.1454 17.0848 92.2259 17.0984 92.2696 17.1249C92.3459 17.1714 92.3834 17.2667 92.3834 17.41V17.5089L92.3876 17.5483C92.389 17.5547 92.3904 17.559 92.3911 17.5626C92.3911 17.5669 92.3924 17.5712 92.3938 17.5755H92.593L92.5854 17.5605C92.5805 17.5504 92.5771 17.5282 92.575 17.4945ZM92.7644 17.6514C92.5812 17.842 92.3577 17.938 92.0961 17.938C91.8344 17.938 91.6117 17.842 91.4291 17.6514C91.2466 17.4594 91.1557 17.228 91.1557 16.9572C91.1557 16.6871 91.2466 16.4579 91.4298 16.2673C91.6144 16.076 91.8365 15.9808 92.0961 15.9808C92.3577 15.9808 92.5805 16.076 92.7644 16.2673C92.9477 16.4579 93.0393 16.6871 93.0393 16.9572C93.0393 17.228 92.9477 17.4594 92.7644 17.6514ZM92.8734 16.1577C92.6589 15.9385 92.4008 15.8282 92.0961 15.8282C91.7949 15.8282 91.5374 15.9385 91.3243 16.1577C91.1099 16.3791 91.003 16.6449 91.003 16.9572C91.003 17.271 91.1092 17.5397 91.3215 17.7596C91.5339 17.9824 91.7935 18.0935 92.0961 18.0935C92.4008 18.0935 92.6589 17.9824 92.8734 17.7596C93.0879 17.5382 93.1954 17.271 93.1954 16.9572C93.1954 16.6442 93.0879 16.3784 92.8734 16.1577ZM89.903 4.94577H84.4222L81.3393 8.73347V0.0211105H76.4964V18.0519H81.3393V14.2628L82.1958 13.3049L84.7886 18.0519H90.6129L85.3765 9.89478L89.903 4.94577ZM70.4264 4.61693C68.4942 4.61693 67.1985 5.29896 66.292 6.61144H66.2449V4.94577H61.572V18.0519H66.4142V11.132C66.4142 9.03723 67.5163 8.60666 68.3492 8.60666C69.7671 8.60666 69.9378 9.66696 69.9378 11.1836V18.0519H74.7821V9.06231C74.7821 6.0555 72.7021 4.61693 70.4264 4.61693ZM55.1876 13.3802C55.1147 14.7435 54.259 15.4255 53.1568 15.4255C52.2761 15.4255 51.6411 14.8194 51.6411 14.2134C51.6411 13.3293 52.2032 13.052 53.2804 12.7999C53.9404 12.6487 54.6004 12.4717 55.1876 12.168V13.3802ZM59.8362 9.74362C59.8362 7.21825 59.8855 4.61622 53.8176 4.61622C50.8089 4.61622 47.4325 5.22302 47.286 8.90971H51.7868C51.8118 8.35377 52.1054 7.57216 53.5982 7.57216C54.3804 7.57216 55.1876 7.89884 55.1876 8.7829C55.1876 9.61753 54.5275 9.81884 53.8668 9.94493C51.3954 10.4249 46.6989 10.2738 46.6989 14.4147C46.6989 17.1671 48.7289 18.3808 51.1754 18.3808C52.7418 18.3808 54.2333 18.0261 55.2618 16.8147H55.3097C55.2868 17.1671 55.359 17.6987 55.4811 18.0519H60.424C59.8855 17.2194 59.8362 16.1076 59.8362 15.1225V9.74362ZM39.3581 14.7435C37.621 14.7435 37.2295 13.0528 37.2295 11.4859C37.2295 9.94493 37.621 8.25419 39.3581 8.25419C41.0946 8.25419 41.4867 9.94493 41.4867 11.4859C41.4867 13.0528 41.0946 14.7435 39.3581 14.7435ZM40.9232 4.61693C39.4803 4.61693 38.1845 5.27317 37.4502 6.38434H37.401V0.0211105H32.5566V18.0519H37.2295V16.6126H37.2788C37.891 17.4458 38.6238 18.38 40.9967 18.38C44.5932 18.38 46.3304 14.7177 46.3304 11.4351C46.3304 8.35377 45.1804 4.61693 40.9232 4.61693Z" fill="#001A71"/>
</g>
<defs>
<clipPath id="clip0_174:3545">
<rect width="93" height="24" fill="white" transform="translate(0.25 0.0100098)"/>
</clipPath>
</defs>
</svg>
