<svg width="63" height="33" viewBox="0 0 63 33" fill="none" xmlns="http://www.w3.org/2000/svg">
<path d="M59.9137 25.4177C59.9137 22.2731 58.6511 20.4434 56.3167 20.4434C53.9821 20.4434 52.7195 22.2731 52.7195 25.4177C52.7195 28.581 53.9645 30.3932 56.3167 30.3932C58.668 30.3932 59.9137 28.5806 59.9137 25.4177ZM62.75 25.4177C62.75 29.2908 60.0697 32.01 56.3167 32.01C52.5811 32.01 49.8835 29.2908 49.8835 25.4177C49.8835 21.5629 52.5977 18.8266 56.3167 18.8266C60.0509 18.8266 62.75 21.5629 62.75 25.4177ZM43.3106 25.9866C43.3106 26.3414 43.3627 26.5726 43.5011 26.8571H45.5589V30.0017C44.9119 30.2752 44.2186 30.4141 43.519 30.4103C41.0296 30.4103 39.7315 28.581 39.7315 25.4177C39.7315 22.2547 41.0293 20.425 43.3806 20.425C44.9543 20.425 45.8712 21.2249 46.4062 22.6107L46.5964 23.1081H47.8427V19.928C46.2853 19.1646 44.8843 18.8266 43.2597 18.8266C39.4546 18.8266 36.8952 21.4377 36.8952 25.436C36.8952 29.4514 39.3859 32.01 43.2597 32.01C44.7979 32.01 46.3895 31.5649 48.1017 30.6948V25.1516H43.5011C43.363 25.436 43.3106 25.6486 43.3106 25.9869V25.9866ZM32.7966 22.753C32.7966 21.4561 32.0181 20.763 30.461 20.763H28.4208V24.76H30.461C32.0002 24.76 32.7966 24.0321 32.7966 22.753ZM19.2546 26.3768L17.5603 21.6699L15.8648 26.3768H19.2546ZM36.15 30.25C36.2551 30.4458 36.3069 30.6767 36.3069 30.9792C36.3069 31.2808 36.2551 31.5117 36.15 31.7075C35.7031 31.7671 35.2529 31.7968 34.8023 31.7962C33.1244 31.7962 32.3116 31.085 32.122 29.4331L32.0523 28.8119C31.8451 27.0174 31.275 26.3246 29.3723 26.3246H28.4212V30.1078H30.0633V31.6539H19.1849V30.1078H20.6035L19.8083 27.8878H15.312L14.5168 30.1078H15.9687V31.6539H11.3861V30.1078H12.5966L16.8336 19.2168H19.134L23.4574 30.1078H25.8438V20.763H24.3744V19.2168H31.3268C33.7987 19.2168 35.4069 20.4785 35.4069 22.504C35.4069 24.512 33.7987 25.577 32.2425 25.6486V25.7021C33.8166 25.8273 34.4567 26.7329 34.6117 28.1359L34.6814 28.7938C34.7844 29.8243 34.9925 30.2864 35.7877 30.2864C35.9093 30.2852 36.0305 30.273 36.15 30.25ZM9.79478 20.763C10.9532 20.763 11.3506 21.2784 11.7317 22.7714L11.8522 23.2503H13.0973V19.2168H2.66933V20.763H4.14007V30.1078H2.66933V31.6539H8.44553V30.1078H6.71581V26.4839H10.2788C10.4182 26.1824 10.4691 25.9501 10.4691 25.5954C10.4691 25.2583 10.4182 25.0445 10.2785 24.7429H6.71613V20.763H9.79478ZM62.3347 9.33735C62.3347 7.38383 61.1763 6.03343 58.9967 5.51804L56.8005 5.00233C55.5216 4.70109 54.9854 4.18538 54.9854 3.31522C54.9854 2.26605 55.7985 1.60972 57.3888 1.60972C58.9801 1.60972 59.9137 2.19542 60.2769 3.5813L60.432 4.18538H61.6779V1.1111C60.2769 0.383168 58.7898 0.0100098 57.2846 0.0100098C54.3274 0.0100098 52.4263 1.46749 52.4263 3.81254C52.4263 5.62383 53.5326 6.95713 55.6588 7.43608L57.8562 7.9347C59.2557 8.254 59.7753 8.82196 59.7753 9.76404C59.7753 10.9187 58.927 11.5582 57.2325 11.5582C55.3131 11.5582 54.3277 10.7768 53.8955 9.28381L53.671 8.5204H52.4263V12.0036C54 12.8022 55.5037 13.1583 57.5272 13.1583C60.432 13.1583 62.3347 11.6656 62.3347 9.33767V9.33735ZM51.2657 8.5562H50.0207L49.8826 9.17867C49.5369 10.759 49.0529 11.2573 47.9111 11.2573H45.5068V1.91095H47.1502V0.366073H41.4612V1.91095H42.9307V11.257H41.4612V12.8019H51.2654L51.2657 8.5562ZM40.3704 8.5562H39.1256L38.9872 9.17867C38.6419 10.759 38.1578 11.2573 37.0158 11.2573H34.6117V1.91095H36.2551V0.366073H30.5649V1.91095H32.0357V11.257H30.5649V12.8019H40.3704V8.5562ZM5.17758 12.8019L2.13441 1.91095H0.75V0.366073H6.38808V1.91095H4.76258L6.78582 9.40927L9.2068 0.365752H11.6962L14.1703 9.42604L16.158 1.91128H14.4628V0.366073H29.1297V4.39824H27.885L27.7632 3.91801C27.3833 2.42667 26.9856 1.91095 25.8263 1.91095H22.9557V5.65995H26.4321C26.5703 5.96151 26.6214 6.17566 26.6214 6.51238C26.6214 6.86715 26.5706 7.0984 26.4321 7.40093H22.9557V11.257H25.9481C27.071 11.257 27.5726 10.7584 27.9182 9.17802L28.0576 8.55556H29.3026V12.8019H18.9089V11.257H20.3797V1.91095H17.9907L14.9654 12.8019H12.5611L10.1062 3.77707L7.58099 12.8019H5.17758Z" fill="#DD1E25"/>
</svg>
